<svg width="38" height="27" viewBox="0 0 38 27" fill="none" xmlns="http://www.w3.org/2000/svg">
<path d="M21.0284 0.979914C20.0521 0.00360298 18.4692 0.00360298 17.4929 0.979914L1.58295 16.8898C0.60664 17.8661 0.60664 19.449 1.58295 20.4254C2.55926 21.4017 4.14217 21.4017 5.11848 20.4254L19.2606 6.28321L33.4028 20.4254C34.3791 21.4017 35.962 21.4017 36.9383 20.4254C37.9146 19.449 37.9146 17.8661 36.9383 16.8898L21.0284 0.979914ZM16.7606 24.0965C16.7606 25.4772 17.8799 26.5965 19.2606 26.5965C20.6413 26.5965 21.7606 25.4772 21.7606 24.0965H16.7606ZM16.7606 2.74768V24.0965H21.7606V2.74768H16.7606Z" fill="#D9D9D9"/>
</svg>
