<svg width="135" height="89" viewBox="0 0 135 89" fill="none" xmlns="http://www.w3.org/2000/svg">
<path d="M5.36346 32.6812C5.51432 32.8476 5.44643 32.9327 5.15981 32.9327C4.5526 32.9024 3.87186 32.6056 3.1138 32.0441C1.90128 31.1329 1.2658 29.9248 1.20545 28.4218C1.11494 26.3706 2.0842 24.344 4.11512 22.3381C4.90335 21.5479 5.91032 20.7425 7.13793 19.922C8.36553 19.1015 9.71005 18.3567 11.1715 17.6893C12.6329 17.0219 14.0604 16.5701 15.4558 16.3338C16.8494 16.0994 18.0996 16.1712 19.2046 16.5493C19.7666 16.7629 20.2682 17.2053 20.7151 17.8821C21.1639 18.5589 21.4543 19.1885 21.592 19.7727C21.7277 20.3568 21.7202 20.665 21.5693 20.6953C21.509 20.7104 21.4109 20.665 21.2733 20.5572C21.1356 20.4514 20.9282 20.3152 20.6472 20.147C20.3662 19.9806 20.0608 19.8502 19.727 19.7594C18.7426 19.4853 17.3095 19.6611 15.4313 20.2831C15.8103 20.3436 16.0215 20.4343 16.0687 20.5553C16.1139 20.6763 16.0875 20.89 15.9895 21.1944C15.8914 21.4987 15.865 21.7936 15.9103 22.0829C16.0159 22.7521 16.1743 24.0131 16.3874 25.8658C16.6005 27.7186 16.7513 28.9947 16.8418 29.6923C17.8413 29.0249 18.9897 28.2725 20.2852 27.4369C21.5806 26.6013 22.6348 25.9188 23.4437 25.3856C24.2546 24.8544 24.8335 24.4593 25.1824 24.2003C26.7569 23.0924 28.0581 21.9411 29.0783 20.7482C30.1022 19.5571 30.4454 18.6554 30.1135 18.0485C29.8552 17.5627 29.9476 17.3036 30.3851 17.2734C30.8999 17.2431 31.4448 17.4719 32.0219 17.9577C32.2632 18.1714 32.4537 18.3907 32.5914 18.6194C32.7422 18.8633 32.8176 19.1545 32.8176 19.4967C32.8176 19.8388 32.746 20.2264 32.6027 20.6593C32.4594 21.0922 32.2086 21.5706 31.854 22.0942C31.4976 22.6179 31.0488 23.1643 30.5133 23.7352C29.9759 24.3043 29.2932 24.9225 28.4673 25.5917C27.6413 26.261 26.706 26.9283 25.6613 27.5976C22.3274 29.7698 19.5629 31.6528 17.3661 33.2484C17.5791 34.5094 17.8092 35.6475 18.06 36.6665C18.3108 37.6836 18.6276 38.6818 19.0142 39.6629C19.3989 40.6422 19.8269 41.4438 20.2965 42.0677C20.766 42.6897 21.328 43.1548 21.9785 43.4572C22.6291 43.7597 23.3344 43.8372 24.0924 43.6841C24.2584 43.6539 24.3432 43.737 24.3432 43.9356C24.3281 44.3458 24.0472 44.8014 23.5022 45.3024C22.8818 45.879 22.1614 46.2061 21.343 46.2817C20.404 46.3724 19.5478 46.1474 18.7747 45.6086C18.0016 45.0698 17.3397 44.2683 16.7853 43.2039C16.2309 42.1395 15.7594 40.9825 15.3653 39.7291C14.9712 38.4757 14.6299 37.0597 14.3433 35.4811C13.6305 36.0275 12.7479 36.7874 11.6957 37.7592C10.6416 38.7309 9.52902 39.8104 8.3561 40.9939C7.1813 42.1792 6.18186 43.3514 5.35592 44.5141C4.52998 45.6767 4.10192 46.5842 4.07175 47.2364C4.04157 48.2384 3.9586 48.8396 3.82094 49.0362C3.67009 49.2498 3.41174 49.3179 3.0478 49.2423C2.91203 49.1062 2.7442 48.919 2.54808 48.6845C2.35197 48.4482 2.06723 47.97 1.69574 47.2497C1.32425 46.5275 1.08288 45.8034 0.967853 45.0737C0.85471 44.3439 0.971623 43.4743 1.32048 42.4647C1.66934 41.4552 2.31991 40.5023 3.27597 39.6062C5.28992 37.7081 8.78227 35.0879 13.753 31.7454C13.5871 30.4239 13.4494 29.0798 13.3438 27.7129C13.2382 26.346 13.1477 24.9905 13.0704 23.6464C12.995 22.3022 12.9497 21.5233 12.9346 21.3115C11.1771 22.1623 9.56296 23.1681 8.09398 24.3308C6.62501 25.4915 5.63124 26.5899 5.11643 27.6222C4.70723 28.5636 4.52243 29.4106 4.56015 30.163C4.59786 30.9154 4.74495 31.5261 5.00329 31.9968L5.36724 32.6812H5.36346Z" fill="#71AD41"></path>
<path d="M26.747 30.3596C27.4579 28.6733 28.5158 27.3367 29.9169 26.3498C31.318 25.3629 32.77 25.0661 34.2692 25.4613C34.3446 25.4764 34.5237 25.5595 34.8028 25.7127C35.0819 25.8639 35.2535 25.9792 35.3138 26.0549C35.4194 25.9169 35.6533 25.777 36.0172 25.6333C36.3812 25.4896 36.8243 25.4366 37.3466 25.4745C37.869 25.5123 38.3046 25.7146 38.6534 26.0776C38.6987 26.1381 38.7289 26.1872 38.744 26.2269C38.7591 26.2647 38.7553 26.2987 38.7327 26.329C38.71 26.3592 38.6723 26.4027 38.6195 26.4538C38.5667 26.5067 38.5064 26.571 38.4385 26.6466C38.3706 26.7241 38.2895 26.8375 38.199 26.9888C38.1085 27.1419 38.018 27.3158 37.9274 27.5125C37.5635 28.3783 37.2769 29.1081 37.0638 29.6998C36.5792 31.1272 36.3095 32.3428 36.2567 33.3448C36.2039 34.3467 36.3962 34.8572 36.8356 34.8723C37.3052 34.8723 37.8237 34.5755 38.3932 33.9837C38.9608 33.392 39.4115 32.7927 39.7453 32.184L40.245 31.2954L40.79 32.1386C40.7447 32.2596 40.6731 32.4203 40.5731 32.6169C40.4751 32.8154 40.2657 33.1784 39.9489 33.7115C39.6303 34.2428 39.3097 34.7249 38.9835 35.1578C38.6572 35.5907 38.248 36.0236 37.7558 36.4566C37.2637 36.8895 36.7753 37.1826 36.2906 37.3338C35.5024 37.5909 34.8198 37.5682 34.2446 37.2657C33.6676 36.9613 33.2584 36.4452 33.017 35.7174C32.0308 36.5833 31.1766 37.1372 30.4487 37.3811C29.6152 37.6552 28.8119 37.6155 28.0387 37.2676C27.2656 36.9198 26.6791 36.3261 26.2775 35.4905C25.8758 34.6549 25.7815 33.7361 25.9927 32.7341C26.1436 32.0044 26.3944 31.2141 26.7432 30.3634L26.747 30.3596ZM30.7466 34.9612C31.0333 34.9309 31.2954 34.8591 31.5311 34.7456C31.7649 34.6322 31.978 34.4413 32.1666 34.1766C32.3552 33.9119 32.5079 33.687 32.621 33.5036C32.7342 33.3221 32.8605 33.0064 32.9963 32.5583C33.1321 32.1103 33.2264 31.7794 33.2792 31.5677C33.332 31.3541 33.4281 30.9684 33.5639 30.405C33.0793 30.5865 32.6852 30.5865 32.3816 30.405C32.0949 30.2235 32.1911 29.9872 32.6776 29.6979L32.836 29.6072C33.2301 29.3954 33.5318 29.0306 33.7449 28.5144C33.926 28.0437 33.9674 27.6637 33.8694 27.3745C33.7713 27.0852 33.5922 26.9189 33.3357 26.8735C33.0774 26.8432 32.7587 26.9642 32.3816 27.2383C32.0025 27.5125 31.6159 27.9378 31.2218 28.5144C30.1771 30.0325 29.5171 31.5752 29.2437 33.1406C29.1381 33.7626 29.1985 34.2447 29.4247 34.5869C29.651 34.929 30.0923 35.0538 30.7429 34.9631L30.7466 34.9612Z" fill="#71AD41"></path>
<path d="M41.3823 27.1899C41.5803 26.7191 41.5954 26.3996 41.4276 26.2333C41.2013 26.0064 41.405 25.7928 42.0404 25.5962C42.9192 25.3239 43.7678 25.2389 44.5862 25.3447C45.0255 25.4052 45.2537 25.5357 45.2688 25.7323C45.2688 26.0518 45.1179 26.4828 44.8143 27.0311C44.7691 27.1067 44.6013 27.4035 44.3146 27.9196C44.0261 28.4358 43.8074 28.8384 43.6546 29.1277C43.715 29.0521 43.8885 28.8479 44.177 28.5133C44.4655 28.1786 44.6465 27.9744 44.7219 27.8969C44.7974 27.8194 44.9614 27.6455 45.2103 27.3733C45.4611 27.0991 45.6422 26.9252 45.7553 26.8496C45.8685 26.774 46.0419 26.6341 46.2777 26.428C46.5115 26.2238 46.717 26.0839 46.8905 26.0064C47.064 25.9308 47.2733 25.8363 47.5166 25.7228C47.7579 25.6094 48.005 25.5206 48.2558 25.4601C48.5066 25.3996 48.7744 25.3466 49.0629 25.3012C49.5173 25.2407 49.8775 25.2445 50.1434 25.3126C50.4074 25.3807 50.5677 25.5565 50.6205 25.8363C50.6733 26.118 50.4866 26.5471 50.0642 27.1237C48.5198 29.2959 47.5788 31.2545 47.245 33.0014C47.0319 34.1716 47.1922 34.7936 47.7221 34.8711H47.8805C48.3501 34.8409 48.8686 34.5252 49.4381 33.9259C50.0057 33.3266 50.4564 32.7386 50.7902 32.1601L51.2899 31.2942L51.8349 32.1374C51.7896 32.2584 51.718 32.4191 51.6199 32.6157C51.5218 32.8142 51.3125 33.1772 50.9938 33.7103C50.6752 34.2416 50.3546 34.7237 50.0284 35.1566C49.7021 35.5895 49.2929 36.0224 48.8007 36.4554C48.3086 36.8883 47.8202 37.1813 47.3355 37.3326C46.0778 37.7428 45.1236 37.4762 44.473 36.5348C43.8224 35.5933 43.6546 34.3248 43.9733 32.731C44.1393 31.8349 44.4579 30.901 44.9275 29.9293C44.4278 30.0503 43.9054 30.4151 43.3586 31.022C42.8136 31.6307 42.3667 32.3132 42.0178 33.0732C41.669 33.8332 41.4238 34.6046 41.2786 35.3853C41.1334 36.168 41.2145 36.7957 41.5181 37.2645C41.5935 37.4025 41.5332 37.4819 41.3371 37.5046C41.1391 37.5273 41.0108 37.5235 40.9505 37.4933C40.3131 37.3723 39.8021 37.1473 39.4155 36.8202C39.029 36.4932 38.7763 36.1245 38.6556 35.7143C38.5349 35.3041 38.4972 34.8257 38.5424 34.2794C38.5877 33.733 38.6895 33.2018 38.8498 32.6838C39.0082 32.1677 39.2138 31.6137 39.4646 31.0201C39.7154 30.4284 39.9567 29.9161 40.1924 29.4831C40.4263 29.0502 40.6658 28.6059 40.909 28.1503C41.1523 27.6947 41.3107 27.3752 41.3861 27.1937L41.3823 27.1899Z" fill="#71AD41"></path>
<path d="M66.7904 20.65C67.3203 20.8031 67.1166 21.357 66.1775 22.3137C64.4955 23.9546 63.1246 26.2328 62.0648 29.148C61.2464 31.3655 60.9202 33.0292 61.088 34.137C61.1483 34.6229 61.3294 34.8668 61.633 34.8668C62.1025 34.8668 62.6211 34.57 63.1906 33.9782C63.7582 33.3865 64.2089 32.7872 64.5426 32.1785L65.0423 31.2899L65.5873 32.1331C65.5421 32.2541 65.4704 32.4148 65.3723 32.6114C65.2724 32.8099 65.065 33.1729 64.7463 33.706C64.4276 34.2372 64.107 34.7193 63.7808 35.1523C63.4546 35.5852 63.0454 36.0181 62.5532 36.451C62.061 36.884 61.5726 37.177 61.088 37.3283C60.2998 37.5854 59.6171 37.5627 59.042 37.2602C58.465 36.9558 58.0558 36.4397 57.8144 35.7119C56.8282 36.5777 55.9739 37.1317 55.246 37.3755C54.4125 37.6497 53.6092 37.6099 52.8361 37.2621C52.0629 36.9142 51.4765 36.3206 51.0748 35.485C50.6732 34.6494 50.577 33.7306 50.7901 32.7286C50.9409 31.9989 51.1917 31.2086 51.5406 30.3579C52.2515 28.6715 53.3094 27.3349 54.7105 26.3481C56.1116 25.3612 57.5636 25.0644 59.0627 25.4595C59.5172 25.5654 59.866 25.7639 60.1093 26.0512C61.0182 24.2288 62.0365 22.7995 63.1661 21.7673C64.2937 20.7332 65.5025 20.3626 66.7904 20.65ZM58.3594 30.4014C57.8747 30.5828 57.4806 30.5828 57.177 30.4014C56.8904 30.2199 56.9866 29.9835 57.4731 29.6943L57.6315 29.6036C58.0256 29.3918 58.3273 29.0269 58.5404 28.5108C58.7214 28.0401 58.7629 27.6601 58.6648 27.3708C58.5668 27.0816 58.3876 26.9152 58.1312 26.8699C57.8728 26.8396 57.5542 26.9606 57.177 27.2347C56.798 27.5088 56.4133 27.9342 56.0173 28.5108C54.9726 30.0289 54.3126 31.5716 54.0411 33.1369C53.9355 33.7589 53.9996 34.241 54.2334 34.5832C54.4672 34.9254 54.9047 35.0502 55.5402 34.9594C55.7684 34.9292 55.972 34.8838 56.155 34.8233C56.336 34.7628 56.5019 34.6645 56.6547 34.5265C56.8055 34.3885 56.9338 34.2788 57.0412 34.1957C57.1468 34.1125 57.2524 33.9518 57.3599 33.7173C57.4674 33.4829 57.5504 33.3109 57.6107 33.205C57.6711 33.0992 57.7427 32.8893 57.8257 32.5774C57.9087 32.2654 57.9652 32.0499 57.9954 31.9289C58.0256 31.8079 58.0859 31.5527 58.1764 31.167C58.267 30.7795 58.3273 30.5261 58.3575 30.4032L58.3594 30.4014Z" fill="#71AD41"></path>
<path d="M64.5633 30.3596C65.2742 28.6733 66.3321 27.3367 67.7332 26.3498C69.1343 25.3629 70.5863 25.0661 72.0854 25.4613C72.1609 25.4764 72.34 25.5595 72.6191 25.7127C72.8982 25.8639 73.0698 25.9792 73.1301 26.0549C73.2357 25.9169 73.4696 25.777 73.8335 25.6333C74.1974 25.4896 74.6406 25.4366 75.1629 25.4745C75.6853 25.5123 76.1209 25.7146 76.4697 26.0776C76.515 26.1381 76.5452 26.1872 76.5602 26.2269C76.5753 26.2647 76.5716 26.2987 76.5489 26.329C76.5263 26.3592 76.4886 26.4027 76.4358 26.4538C76.383 26.5067 76.3226 26.571 76.2548 26.6466C76.1869 26.7241 76.1058 26.8375 76.0153 26.9888C75.9248 27.1419 75.8342 27.3158 75.7437 27.5125C75.3798 28.3783 75.0932 29.1081 74.8801 29.6998C74.3954 31.1272 74.1258 32.3428 74.073 33.3448C74.0202 34.3467 74.2125 34.8572 74.6519 34.8723C75.1214 34.8723 75.64 34.5755 76.2095 33.9837C76.7771 33.392 77.2278 32.7927 77.5616 32.184L78.0613 31.2954L78.6063 32.1386C78.561 32.2596 78.4893 32.4203 78.3894 32.6169C78.2913 32.8154 78.082 33.1784 77.7652 33.7115C77.4465 34.2428 77.126 34.7249 76.7997 35.1578C76.4735 35.5907 76.0643 36.0236 75.5721 36.4566C75.08 36.8895 74.5916 37.1826 74.1069 37.3338C73.3187 37.5909 72.6361 37.5682 72.0609 37.2657C71.4839 36.9613 71.0747 36.4452 70.8333 35.7174C69.8471 36.5833 68.9929 37.1372 68.265 37.3811C67.4315 37.6552 66.6282 37.6155 65.855 37.2676C65.0819 36.9198 64.4954 36.3261 64.0938 35.4905C63.6921 34.6549 63.5978 33.7361 63.809 32.7341C63.9599 32.0044 64.2107 31.2141 64.5595 30.3634L64.5633 30.3596ZM68.5629 34.9612C68.8495 34.9309 69.1117 34.8591 69.3474 34.7456C69.5812 34.6322 69.7943 34.4413 69.9829 34.1766C70.1714 33.9119 70.3242 33.687 70.4373 33.5036C70.5505 33.3221 70.6768 33.0064 70.8126 32.5583C70.9484 32.1103 71.0426 31.7794 71.0954 31.5677C71.1482 31.3541 71.2444 30.9684 71.3802 30.405C70.8955 30.5865 70.5014 30.5865 70.1978 30.405C69.9112 30.2235 70.0074 29.9872 70.4939 29.6979L70.6523 29.6072C71.0464 29.3954 71.3481 29.0306 71.5612 28.5144C71.7422 28.0437 71.7837 27.6637 71.6857 27.3745C71.5876 27.0852 71.4085 26.9189 71.152 26.8735C70.8937 26.8432 70.575 26.9642 70.1978 27.2383C69.8188 27.5125 69.4322 27.9378 69.0381 28.5144C67.9934 30.0325 67.3334 31.5752 67.06 33.1406C66.9544 33.7626 67.0147 34.2447 67.241 34.5869C67.4673 34.929 67.9086 35.0538 68.5591 34.9631L68.5629 34.9612Z" fill="#71AD41"></path>
<path d="M80.1526 37.3288C79.5774 37.5254 79.057 37.5708 78.595 37.4649C78.133 37.359 77.7766 37.1454 77.5276 36.8278C77.2768 36.5083 77.0694 36.1245 76.9016 35.6764C76.7356 35.2284 76.6546 34.7463 76.6621 34.2283C76.6696 33.7122 76.7111 33.2112 76.7866 32.7253C76.9374 31.9804 77.1731 31.1108 77.4899 30.1164C77.8086 29.1219 78.2555 28.0047 78.8307 26.7682C79.4058 25.5299 80.0281 24.4297 80.6938 23.4636C81.3613 22.4994 82.1514 21.7356 83.0679 21.1741C83.9844 20.6127 84.9121 20.4368 85.8512 20.6505C86.1699 20.711 86.2302 20.9397 86.0322 21.3349C86.2434 21.5617 86.3736 21.8283 86.4188 22.1327C86.5244 22.6488 85.987 23.7434 84.8046 25.4127C83.6223 27.084 82.3343 28.7023 80.9408 30.2657C80.6825 30.9199 80.475 31.5078 80.3166 32.0315C80.1582 32.5552 80.0394 33.0448 79.964 33.5004C79.8886 33.9561 79.9112 34.3058 80.0319 34.5478C80.1526 34.7916 80.3732 34.8975 80.6919 34.8673C81.1614 34.837 81.68 34.5213 82.2495 33.922C82.8171 33.3227 83.2678 32.7348 83.6015 32.1563L84.1013 31.2904L84.6462 32.1335C84.601 32.2545 84.5293 32.4152 84.4313 32.6119C84.3332 32.8104 84.1239 33.1734 83.8052 33.7065C83.4865 34.2377 83.1659 34.7198 82.8397 35.1528C82.5135 35.5857 82.1043 36.0186 81.6121 36.4515C81.1199 36.8845 80.6315 37.1775 80.1469 37.3288H80.1526ZM82.2665 27.3487C83.5544 25.2218 84.2729 23.9079 84.4256 23.4069C83.9711 24.1196 83.6072 24.7284 83.3338 25.2294C83.2131 25.4109 82.8567 26.1179 82.2665 27.3487Z" fill="#71AD41"></path>
<path d="M84.0617 30.3596C84.7726 28.6733 85.8305 27.3367 87.2316 26.3498C88.6327 25.3629 90.0847 25.0661 91.5839 25.4613C91.6593 25.4764 91.8384 25.5595 92.1175 25.7127C92.3966 25.8639 92.5682 25.9792 92.6285 26.0549C92.7341 25.9169 92.968 25.777 93.3319 25.6333C93.6959 25.4896 94.139 25.4366 94.6613 25.4745C95.1837 25.5123 95.6193 25.7146 95.9681 26.0776C96.0134 26.1381 96.0436 26.1872 96.0587 26.2269C96.0737 26.2647 96.07 26.2987 96.0473 26.329C96.0247 26.3592 95.987 26.4027 95.9342 26.4538C95.8814 26.5067 95.8211 26.571 95.7532 26.6466C95.6853 26.7241 95.6042 26.8375 95.5137 26.9888C95.4232 27.1419 95.3327 27.3158 95.2422 27.5125C94.8782 28.3783 94.5916 29.1081 94.3785 29.6998C93.8939 31.1272 93.6242 32.3428 93.5714 33.3448C93.5186 34.3467 93.7109 34.8572 94.1503 34.8723C94.6199 34.8723 95.1384 34.5755 95.7079 33.9837C96.2755 33.392 96.7262 32.7927 97.06 32.184L97.5597 31.2954L98.1047 32.1386C98.0594 32.2596 97.9877 32.4203 97.8878 32.6169C97.7897 32.8154 97.5804 33.1784 97.2636 33.7115C96.9449 34.2428 96.6244 34.7249 96.2981 35.1578C95.9719 35.5907 95.5627 36.0236 95.0705 36.4566C94.5784 36.8895 94.09 37.1826 93.6053 37.3338C92.8171 37.5909 92.1345 37.5682 91.5593 37.2657C90.9823 36.9613 90.5731 36.4452 90.3317 35.7174C89.3455 36.5833 88.4913 37.1372 87.7634 37.3811C86.9299 37.6552 86.1266 37.6155 85.3534 37.2676C84.5803 36.9198 83.9938 36.3261 83.5922 35.4905C83.1905 34.6549 83.0962 33.7361 83.3074 32.7341C83.4583 32.0044 83.7091 31.2141 84.0579 30.3634L84.0617 30.3596ZM88.0613 34.9612C88.348 34.9309 88.6101 34.8591 88.8458 34.7456C89.0796 34.6322 89.2927 34.4413 89.4813 34.1766C89.6698 33.9119 89.8226 33.687 89.9357 33.5036C90.0489 33.3221 90.1752 33.0064 90.311 32.5583C90.4468 32.1103 90.541 31.7794 90.5938 31.5677C90.6466 31.3541 90.7428 30.9684 90.8786 30.405C90.394 30.5865 89.9998 30.5865 89.6962 30.405C89.4096 30.2235 89.5058 29.9872 89.9923 29.6979L90.1507 29.6072C90.5448 29.3954 90.8465 29.0306 91.0596 28.5144C91.2406 28.0437 91.2821 27.6637 91.1841 27.3745C91.086 27.0852 90.9069 26.9189 90.6504 26.8735C90.3921 26.8432 90.0734 26.9642 89.6962 27.2383C89.3172 27.5125 88.9307 27.9378 88.5365 28.5144C87.4918 30.0325 86.8318 31.5752 86.5584 33.1406C86.4528 33.7626 86.5132 34.2447 86.7394 34.5869C86.9657 34.929 87.407 35.0538 88.0576 34.9631L88.0613 34.9612Z" fill="#71AD41"></path>
<path d="M34.1866 42.653C33.1363 43.0179 32.0935 43.5302 31.0601 44.1919C30.0268 44.8536 29.3686 45.4642 29.0858 46.0238C28.9047 46.4492 28.8237 46.8292 28.8425 47.1638C28.8633 47.4985 28.9274 47.7707 29.0349 47.9786L29.2065 48.283C29.2668 48.3567 29.2366 48.3908 29.116 48.3851C28.8538 48.3851 28.554 48.2603 28.2165 48.0108C27.6715 47.5986 27.3811 47.0579 27.3471 46.3906C27.3207 45.7289 27.5489 45.0634 28.0354 44.3961C28.5201 43.7287 29.1669 43.1313 29.9796 42.6095C30.7924 42.0858 31.6918 41.6624 32.6818 41.3391C34.3243 40.8116 35.4689 40.6736 36.1157 40.9232C36.3703 41.0177 36.5966 41.2162 36.7927 41.5206C36.9869 41.825 37.1171 42.1066 37.1812 42.3656C37.2453 42.6246 37.2434 42.7626 37.1774 42.7759C37.151 42.7759 37.1039 42.7513 37.0397 42.7041C36.9756 42.6568 36.8813 42.5963 36.7569 42.5226C36.6324 42.4488 36.4948 42.3902 36.3477 42.3505C36.2402 42.3165 36.078 42.2995 35.8631 42.2995C35.897 42.2995 35.9196 42.3146 35.9291 42.3448C35.9404 42.3751 35.9347 42.4016 35.914 42.4205C35.9008 42.4337 35.8574 42.4658 35.782 42.5169C35.7065 42.5679 35.6669 42.6095 35.6613 42.6435C35.4388 43.0897 35.2596 43.9707 35.122 45.2865C34.9843 46.6023 34.9145 47.6799 34.9145 48.5174C35.5538 47.8368 36.2779 47.0939 37.0869 46.2904C37.1812 46.1959 37.3226 46.0465 37.5112 45.8442C37.6997 45.6419 37.8789 45.451 38.0467 45.2714C38.2145 45.0937 38.4163 44.8895 38.6539 44.6645C38.8896 44.4376 39.1103 44.2373 39.3158 44.0614C39.5213 43.8856 39.7457 43.7193 39.9928 43.5605C40.2379 43.4017 40.4661 43.2844 40.6754 43.205C40.8828 43.1275 41.0959 43.0916 41.3109 43.0935C41.5259 43.0973 41.722 43.1559 41.8974 43.2712C42.1199 43.4206 42.2519 43.6285 42.2971 43.8951C42.3405 44.1617 42.3254 44.3904 42.2519 44.5832C42.1783 44.7761 42.1048 44.8687 42.0294 44.8611C42.0218 44.8611 41.952 44.8082 41.8163 44.7042C41.6824 44.6003 41.524 44.5549 41.3411 44.5681C41.375 44.5757 41.3939 44.5946 41.3976 44.6286C41.4014 44.6626 41.3901 44.6853 41.3618 44.7005L41.0695 44.863C40.9413 45.018 40.7772 45.313 40.5755 45.744C40.2587 46.419 39.8966 47.4152 39.4893 48.731C39.082 50.0487 38.7557 51.3665 38.5106 52.6917C38.2636 54.0151 38.2937 54.9055 38.5955 55.3649C38.6426 55.4254 38.6219 55.4614 38.5351 55.4708C38.4465 55.4803 38.3899 55.4784 38.3635 55.4651C37.9053 55.3574 37.5847 55.0265 37.3999 54.4726C37.2151 53.9187 37.151 53.2759 37.2076 52.5424C37.2641 51.8089 37.3829 51.0243 37.5602 50.183C37.7375 49.3436 37.9317 48.5968 38.141 47.9446C38.3503 47.2924 38.5445 46.7536 38.7275 46.3301C38.0467 46.9105 37.3679 47.5722 36.6928 48.3151C36.0158 49.0581 35.6009 49.5742 35.4463 49.8635C35.3388 50.0601 35.2766 50.2643 35.2653 50.4817C35.2521 50.6972 35.3124 50.8957 35.4463 51.0791C35.5877 51.2341 35.65 51.3324 35.633 51.3721C35.616 51.4118 35.4878 51.4402 35.2445 51.4534C35.0899 51.461 34.9353 51.4289 34.7807 51.357C34.626 51.2852 34.462 51.1528 34.2904 50.9562C34.1188 50.7596 33.983 50.4458 33.8812 50.009C33.7793 49.5742 33.7303 49.0411 33.7303 48.4134C33.7303 47.4606 33.7812 46.5872 33.8812 45.7913C33.3079 46.9597 32.8308 48.2565 32.4461 49.6858C32.0614 51.1131 32.0294 52.0433 32.3443 52.4743C32.3914 52.5348 32.3707 52.5707 32.284 52.5802C32.1953 52.5896 32.1388 52.5877 32.1124 52.5745C31.6409 52.5272 31.3166 52.221 31.1374 51.6576C30.9602 51.0942 30.9319 50.4004 31.0564 49.5761C31.1808 48.7537 31.3864 47.8973 31.673 47.0088C31.9596 46.1202 32.3311 45.277 32.7893 44.4773C33.2476 43.6777 33.7152 43.067 34.1942 42.6492L34.1866 42.653Z" fill="#71AD41"></path>
<path d="M40.9221 47.0901C41.2389 46.3414 41.7084 45.7478 42.3307 45.3073C42.953 44.8687 43.5979 44.7364 44.2654 44.9122C44.2994 44.9198 44.3786 44.9576 44.503 45.0237C44.6275 45.0918 44.7029 45.1429 44.7312 45.1769C44.7784 45.1164 44.8821 45.054 45.0442 44.9897C45.2064 44.9255 45.4025 44.9027 45.6345 44.9198C45.8664 44.9368 46.0607 45.0256 46.2153 45.1882C46.236 45.2147 46.2492 45.2374 46.2549 45.2544C46.2624 45.2714 46.2605 45.2865 46.2511 45.2998C46.2417 45.313 46.2247 45.3319 46.2002 45.3565C46.1757 45.3811 46.1493 45.4094 46.1191 45.4415C46.0889 45.4737 46.0531 45.5266 46.0135 45.5928C45.9739 45.6609 45.9324 45.7384 45.8928 45.8253C45.7307 46.211 45.6024 46.5343 45.5081 46.797C45.2932 47.4323 45.1725 47.973 45.1498 48.4172C45.1253 48.8634 45.2121 49.0884 45.4082 49.096C45.6175 49.096 45.8476 48.9636 46.1002 48.7008C46.3529 48.438 46.5528 48.1715 46.7018 47.9011L46.9243 47.506L47.1676 47.8803C47.1468 47.9332 47.1148 48.0051 47.0714 48.0921C47.028 48.1809 46.9356 48.3416 46.7942 48.578C46.6528 48.8143 46.5095 49.0279 46.3643 49.2207C46.2191 49.4136 46.038 49.6064 45.8193 49.7973C45.6005 49.9902 45.3818 50.1206 45.1687 50.1868C44.818 50.3002 44.5144 50.2907 44.2598 50.1565C44.0033 50.0223 43.8223 49.7917 43.7148 49.4684C43.2773 49.8541 42.8964 50.0998 42.574 50.2076C42.2025 50.3286 41.8461 50.3134 41.5029 50.1565C41.1597 50.0015 40.8994 49.7387 40.7203 49.3663C40.5411 48.9939 40.4997 48.5874 40.594 48.1412C40.6618 47.8179 40.7731 47.4663 40.9277 47.0882L40.9221 47.0901ZM42.7003 49.1357C42.8285 49.1224 42.9454 49.0903 43.0492 49.0392C43.1548 48.9882 43.2472 48.905 43.332 48.7859C43.4169 48.6668 43.4829 48.5685 43.5338 48.4872C43.5847 48.4059 43.6394 48.266 43.6997 48.0675C43.7601 47.869 43.8016 47.7215 43.8261 47.627C43.8506 47.5325 43.8921 47.3605 43.9524 47.1109C43.7374 47.1922 43.5621 47.1922 43.4263 47.1109C43.2981 47.0296 43.3414 46.9256 43.5564 46.797L43.6281 46.7573C43.8034 46.6628 43.9373 46.5021 44.0316 46.2715C44.1127 46.0616 44.1316 45.8934 44.0882 45.7648C44.0429 45.6363 43.9656 45.5625 43.8506 45.5418C43.7374 45.5285 43.596 45.5814 43.4263 45.7043C43.2566 45.8253 43.0869 46.0144 42.9115 46.2715C42.4457 46.9464 42.1534 47.6327 42.0328 48.3265C41.9856 48.6025 42.012 48.818 42.1138 48.9693C42.2157 49.1205 42.4099 49.1772 42.7003 49.1357Z" fill="#71AD41"></path>
<path d="M49.0138 44.3647C49.4117 44.3307 49.7341 44.412 49.9831 44.6086C50.232 44.8033 50.2357 45.085 49.9925 45.448C49.8793 45.6181 49.7266 45.7146 49.538 45.741C49.4173 45.7543 49.3589 45.7183 49.3664 45.6295C49.374 45.5822 49.3966 45.5255 49.4381 45.4574C49.5512 45.2949 49.5324 45.1833 49.3777 45.1228C49.2288 45.0755 49.0949 45.1058 48.9742 45.2136C48.846 45.3289 48.8328 45.4877 48.9346 45.69C48.9478 45.7183 49.076 45.9206 49.3193 46.2987C50.4036 46.1229 51.1616 46.0397 51.5916 46.0454C51.7537 46.0454 51.8895 46.1059 52.0008 46.2269C52.112 46.3478 52.1177 46.4537 52.0159 46.5407C51.2144 46.5955 50.4432 46.7222 49.7021 46.9264C49.8228 47.123 49.9001 47.2459 49.9303 47.295C49.9604 47.3461 50.0151 47.4462 50.0924 47.5994C50.1697 47.7506 50.2131 47.8716 50.2244 47.9586C50.2339 48.0475 50.2433 48.1628 50.2489 48.3083C50.2546 48.4539 50.2414 48.6071 50.2093 48.7697C50.1151 49.2498 49.8416 49.6393 49.3853 49.9399C48.9308 50.2405 48.4066 50.3255 47.8145 50.1989C47.2752 50.0835 46.8641 49.8661 46.5812 49.5466C46.2984 49.2271 46.1664 48.885 46.1833 48.5239C46.2003 48.1628 46.3606 47.8054 46.6623 47.4557C46.964 47.1059 47.3827 46.8375 47.9144 46.656C47.7391 46.2911 47.6485 45.9509 47.641 45.6332C47.6353 45.3156 47.7447 45.0377 47.9691 44.7976C48.1954 44.5575 48.5424 44.4158 49.0138 44.3685V44.3647ZM48.3067 47.3007C48.0031 47.4028 47.7805 47.5767 47.6391 47.8225C47.4977 48.0702 47.4543 48.3102 47.509 48.5465C47.5901 48.8906 47.7636 49.0835 48.0351 49.1232C48.2897 49.1629 48.4952 49.0721 48.6499 48.849C48.8724 48.5125 48.829 48.0928 48.5197 47.5937C48.4594 47.4992 48.3877 47.4009 48.3067 47.3007Z" fill="#71AD41"></path>
<path d="M53.0225 44.3647C53.4204 44.3307 53.7428 44.412 53.9917 44.6086C54.2406 44.8033 54.2444 45.085 54.0012 45.448C53.888 45.6181 53.7353 45.7146 53.5467 45.741C53.426 45.7543 53.3676 45.7183 53.3751 45.6295C53.3826 45.5822 53.4053 45.5255 53.4468 45.4574C53.5599 45.2949 53.541 45.1833 53.3864 45.1228C53.2374 45.0755 53.1035 45.1058 52.9829 45.2136C52.8546 45.3289 52.8414 45.4877 52.9433 45.69C52.9565 45.7183 53.0847 45.9206 53.328 46.2987C54.4122 46.1229 55.1703 46.0397 55.6002 46.0454C55.7624 46.0454 55.8982 46.1059 56.0094 46.2269C56.1207 46.3478 56.1264 46.4537 56.0245 46.5407C55.2231 46.5955 54.4518 46.7222 53.7108 46.9264C53.8314 47.123 53.9088 47.2459 53.9389 47.295C53.9691 47.3461 54.0238 47.4462 54.1011 47.5994C54.1784 47.7506 54.2218 47.8716 54.2331 47.9586C54.2425 48.0475 54.252 48.1628 54.2576 48.3083C54.2633 48.4539 54.2501 48.6071 54.218 48.7697C54.1237 49.2498 53.8503 49.6393 53.394 49.9399C52.9395 50.2405 52.4153 50.3255 51.8231 50.1989C51.2838 50.0835 50.8727 49.8661 50.5899 49.5466C50.307 49.2271 50.175 48.885 50.192 48.5239C50.209 48.1628 50.3693 47.8054 50.671 47.4557C50.9746 47.1041 51.3913 46.8375 51.9231 46.656C51.7477 46.2911 51.6572 45.9509 51.6497 45.6332C51.644 45.3156 51.7534 45.0377 51.9778 44.7976C52.2041 44.5575 52.551 44.4158 53.0225 44.3685V44.3647ZM52.3153 47.3007C52.0117 47.4028 51.7892 47.5767 51.6478 47.8225C51.5063 48.0702 51.463 48.3102 51.5177 48.5465C51.5987 48.8906 51.7722 49.0835 52.0438 49.1232C52.2984 49.1629 52.5039 49.0721 52.6585 48.849C52.881 48.5125 52.8377 48.0928 52.5284 47.5937C52.4681 47.4992 52.3964 47.4009 52.3153 47.3007Z" fill="#71AD41"></path>
<path d="M54.6294 48.1418C54.7312 47.6427 54.9028 47.1776 55.1498 46.7504C55.395 46.3212 55.6665 45.9734 55.9626 45.7068C56.2587 45.4402 56.5604 45.2304 56.8677 45.0792C57.1732 44.9279 57.4523 44.8523 57.7012 44.8523C58.1859 44.7993 58.6064 44.9676 58.9628 45.359C59.2324 45.6709 59.3739 46.0679 59.3871 46.5537C59.6303 46.446 59.9019 46.3099 60.2055 46.1435C60.5091 45.979 60.7467 45.841 60.922 45.7333L61.1936 45.5707L61.3557 45.9847C60.6486 46.5934 59.949 47.0756 59.2551 47.4329C59.0457 48.1551 58.6516 48.8035 58.0727 49.3763C57.4938 49.9511 56.8979 50.2498 56.285 50.2781V50.2668C55.7665 50.3216 55.3309 50.1344 54.9764 49.7053C54.6237 49.2761 54.5068 48.7562 54.6294 48.1399V48.1418ZM56.5981 46.8563C56.3209 47.3894 56.1474 47.879 56.072 48.3233C56.0248 48.5993 56.0531 48.8186 56.1568 48.9755C56.2605 49.1343 56.4548 49.1873 56.7376 49.1325C57.3561 48.9226 57.8351 48.484 58.1708 47.8167H58.1613C57.8181 47.8564 57.5032 47.7883 57.2166 47.6087C56.93 47.4291 56.7225 47.1776 56.5962 46.8544L56.5981 46.8563ZM58.4857 46.8052C58.5253 46.5292 58.5121 46.2683 58.4461 46.0263C58.4197 45.9242 58.3688 45.8297 58.2952 45.739C58.2217 45.6482 58.1349 45.582 58.0369 45.5404C57.9388 45.5007 57.8464 45.5348 57.7597 45.6425C57.6258 45.8051 57.639 46.0358 57.7993 46.3364C57.9615 46.6369 58.1896 46.7939 58.4857 46.8071V46.8052Z" fill="#71AD41"></path>
<path d="M63.6884 43.24C63.8222 43.2684 63.8222 43.3856 63.6884 43.5954C63.6676 43.6294 63.5771 43.758 63.4168 43.9811C63.3018 44.1437 63.1849 44.3327 63.0623 44.5482C63.8109 44.4802 64.2352 44.4707 64.3352 44.518C64.469 44.5917 64.5162 44.6692 64.4766 44.7505C64.437 44.8318 64.3144 44.8999 64.1126 44.9528C64.0655 44.966 63.9693 44.9925 63.826 45.0341C63.6808 45.0738 63.4922 45.1248 63.2603 45.1853C63.0284 45.2458 62.8172 45.3026 62.6286 45.3574C62.3325 45.9378 62.061 46.5314 61.8158 47.1345C61.5688 47.7394 61.4311 48.1516 61.3972 48.3747C61.3633 48.611 61.3727 48.7925 61.4274 48.921C61.4821 49.0496 61.5726 49.1082 61.7008 49.0931C61.9026 49.0798 62.159 48.9305 62.4683 48.6469C62.7776 48.3633 63.034 48.0835 63.2358 47.8056L63.5488 47.3916L63.7204 47.9077C63.6865 47.9625 63.6431 48.0325 63.5884 48.1213C63.5356 48.2083 63.4225 48.369 63.2546 48.6015C63.0868 48.8341 62.9171 49.0477 62.7455 49.2406C62.5739 49.4334 62.3702 49.6224 62.1345 49.8077C61.8988 49.9949 61.6744 50.1196 61.4575 50.1877C61.1332 50.2898 60.8503 50.2822 60.609 50.1669C60.3657 50.0535 60.1809 49.8606 60.0546 49.5903C59.8849 49.2197 59.8849 48.6866 60.0546 47.9909C60.2224 47.2952 60.4826 46.5636 60.8315 45.7941C60.6165 45.8338 60.4751 45.8508 60.4072 45.8451C60.2733 45.8451 60.1489 45.7676 60.0395 45.6164C59.9301 45.4651 59.8811 45.3082 59.8981 45.1456C59.915 44.983 60.015 44.8866 60.196 44.8526C60.5392 44.8129 60.9333 44.7656 61.3765 44.7108C61.5443 44.4272 61.7008 44.1909 61.8422 44.0019C62.3344 43.361 62.951 43.1077 63.6902 43.2419L63.6884 43.24Z" fill="#71AD41"></path>
<path d="M69.8603 46.5918C69.617 47.2742 69.2116 47.9132 68.644 48.5106C68.0745 49.108 67.4107 49.575 66.6489 49.9077C65.889 50.2423 65.1498 50.352 64.437 50.2367C63.9448 50.1554 63.5714 49.9266 63.3169 49.5466C63.0604 49.1685 62.9906 48.6997 63.1038 48.1401C63.1924 47.7015 63.3451 47.2685 63.5639 46.8432C63.7826 46.4178 64.0485 46.036 64.3615 45.6994C64.6746 45.361 65.0442 45.1133 65.4666 44.9545C65.8909 44.7957 66.3283 44.7768 66.7809 44.8978C67.2731 45.0264 67.4749 45.327 67.3862 45.7996C67.3051 46.2458 67.0185 46.6768 66.5282 47.0965C65.921 47.6164 65.3025 47.8546 64.6689 47.8149C64.6218 47.97 64.5803 48.1382 64.5482 48.3216C64.4803 48.747 64.552 49.0513 64.7613 49.2328C64.9706 49.4143 65.2497 49.4597 65.5986 49.3652C66.1247 49.2158 66.6829 48.8831 67.275 48.3632C67.8671 47.8433 68.2688 47.2856 68.4762 46.692C68.1669 46.5974 67.9576 46.4311 67.8501 46.191C67.7426 45.9509 67.7445 45.7202 67.8596 45.4971C67.9934 45.1871 68.2065 44.9848 68.4969 44.8903C68.7854 44.7958 69.0626 44.8298 69.3304 44.9923C69.5963 45.1549 69.7679 45.414 69.8414 45.7713C69.9074 45.7372 69.9489 45.7145 69.9621 45.7013H69.9716C70.4222 45.4517 70.8201 45.2495 71.1633 45.0925C71.4669 44.9432 71.7158 44.8638 71.912 44.8487C72.1062 44.8355 72.242 44.877 72.3155 44.9754C72.389 45.0737 72.4249 45.1984 72.4211 45.3497C72.4173 45.5009 72.3796 45.6749 72.3042 45.8715C72.2834 45.9187 72.2061 46.0681 72.0722 46.3176C71.399 47.5862 71.0822 48.4104 71.1218 48.7885C71.1426 49.0116 71.2727 49.1118 71.516 49.0929C71.7253 49.0797 71.9553 48.9398 72.208 48.6732C72.4607 48.4067 72.6606 48.1458 72.8096 47.8886L73.0321 47.503L73.2753 47.8773C73.2546 47.9302 73.2225 48.0021 73.1792 48.0891C73.1339 48.1779 73.0415 48.3386 72.9001 48.5749C72.7586 48.8112 72.6153 49.0249 72.472 49.2177C72.3268 49.4105 72.1458 49.6034 71.927 49.7943C71.7083 49.9871 71.4914 50.1176 71.2765 50.1838C70.724 50.3653 70.3016 50.248 70.0093 49.8283C69.7151 49.4105 69.6397 48.8472 69.7811 48.1382C69.8282 47.9227 69.9188 47.6164 70.0489 47.2213C70.1809 46.8262 70.2921 46.5313 70.3883 46.3346C70.3412 46.3554 70.2563 46.3914 70.1356 46.4462C70.0149 46.501 69.9225 46.5483 69.8622 46.588L69.8603 46.5918ZM64.8801 47.261C65.1837 47.208 65.4873 47.1003 65.7947 46.9415C66.1002 46.7827 66.3208 46.5521 66.4566 46.2477C66.4773 46.1947 66.4962 46.1324 66.5131 46.0662C66.5301 46 66.5433 45.9244 66.5528 45.8431C66.5622 45.7618 66.5528 45.6938 66.5226 45.6351C66.4924 45.5765 66.4434 45.5463 66.3755 45.5387C66.1737 45.5255 65.9474 45.6541 65.6985 45.9244C65.3949 46.2496 65.1234 46.6938 64.8801 47.261ZM68.627 46.0964C68.7006 45.9887 68.7289 45.8166 68.7081 45.5803C68.6742 45.31 68.5667 45.2268 68.3838 45.327C68.2688 45.395 68.2424 45.5274 68.3027 45.7278C68.363 45.9263 68.4705 46.0492 68.6252 46.0964H68.627Z" fill="#71AD41"></path>
<path d="M72.7888 47.0901C73.1056 46.3414 73.5751 45.7478 74.1974 45.3073C74.8197 44.8687 75.4646 44.7364 76.1321 44.9122C76.1661 44.9198 76.2453 44.9576 76.3697 45.0237C76.4942 45.0918 76.5696 45.1429 76.5979 45.1769C76.6451 45.1164 76.7488 45.054 76.9109 44.9897C77.0731 44.9255 77.2692 44.9027 77.5012 44.9198C77.7331 44.9368 77.9273 45.0256 78.082 45.1882C78.1027 45.2147 78.1159 45.2374 78.1216 45.2544C78.1291 45.2714 78.1272 45.2865 78.1178 45.2998C78.1084 45.313 78.0914 45.3319 78.0669 45.3565C78.0424 45.3811 78.016 45.4094 77.9858 45.4415C77.9556 45.4737 77.9198 45.5266 77.8802 45.5928C77.8406 45.6609 77.7991 45.7384 77.7595 45.8253C77.5973 46.211 77.4691 46.5343 77.3748 46.797C77.1599 47.4323 77.0392 47.973 77.0165 48.4172C76.992 48.8634 77.0788 49.0884 77.2749 49.096C77.4842 49.096 77.7143 48.9636 77.967 48.7008C78.2196 48.438 78.4195 48.1715 78.5685 47.9011L78.791 47.506L79.0343 47.8803C79.0135 47.9332 78.9815 48.0051 78.9381 48.0921C78.8947 48.1809 78.8023 48.3416 78.6609 48.578C78.5195 48.8143 78.3762 49.0279 78.2309 49.2207C78.0857 49.4136 77.9047 49.6064 77.686 49.7973C77.4672 49.9902 77.2485 50.1206 77.0354 50.1868C76.6847 50.3002 76.3811 50.2907 76.1265 50.1565C75.87 50.0223 75.689 49.7917 75.5815 49.4684C75.144 49.8541 74.7631 50.0998 74.4407 50.2076C74.0692 50.3286 73.7128 50.3134 73.3696 50.1565C73.0264 50.0015 72.7661 49.7387 72.587 49.3663C72.4079 48.9939 72.3664 48.5874 72.4606 48.1412C72.5285 47.8179 72.6398 47.4663 72.7944 47.0882L72.7888 47.0901ZM74.567 49.1357C74.6952 49.1224 74.8121 49.0903 74.9159 49.0392C75.0215 48.9882 75.1139 48.905 75.1987 48.7859C75.2836 48.6687 75.3496 48.5685 75.4005 48.4872C75.4514 48.4059 75.5061 48.266 75.5664 48.0675C75.6268 47.869 75.6683 47.7215 75.6928 47.627C75.7173 47.5325 75.7588 47.3605 75.8191 47.1109C75.6041 47.1922 75.4288 47.1922 75.293 47.1109C75.1648 47.0296 75.2081 46.9256 75.4231 46.797L75.4948 46.7573C75.6701 46.6628 75.804 46.5021 75.8983 46.2715C75.9794 46.0616 75.9983 45.8934 75.9549 45.7648C75.9096 45.6363 75.8323 45.5625 75.7173 45.5418C75.6041 45.5285 75.4627 45.5814 75.293 45.7043C75.1233 45.8253 74.9536 46.0144 74.7782 46.2715C74.3124 46.9464 74.0201 47.6327 73.8995 48.3265C73.8523 48.6025 73.8787 48.818 73.9805 48.9693C74.0824 49.1205 74.2766 49.1772 74.567 49.1357Z" fill="#71AD41"></path>
<path d="M77.4355 50.5221C77.543 49.989 77.7052 49.4105 77.9202 48.7904C78.1351 48.1703 78.3199 47.6788 78.4708 47.3215C78.6217 46.9642 78.863 46.4178 79.193 45.6805C79.2949 45.4782 79.3043 45.3364 79.2232 45.2551C79.1214 45.1606 79.2119 45.0699 79.4947 44.9829C79.8983 44.8543 80.2962 44.8146 80.6865 44.8619C80.9147 44.8827 81.0297 44.9394 81.0297 45.034C81.0297 45.1493 80.9826 45.3005 80.8883 45.4896C81.7237 44.8619 82.478 44.6899 83.1512 44.9734C83.4472 45.102 83.6414 45.3289 83.732 45.6522C83.8225 45.9754 83.8093 46.3327 83.6924 46.7203C83.5754 47.1097 83.4057 47.4916 83.187 47.8697C82.9682 48.2479 82.6892 48.5787 82.3535 48.8623C82.0159 49.1459 81.6803 49.3254 81.3427 49.3992C81.3088 49.4067 81.322 49.4199 81.3823 49.4389C81.6181 49.5126 81.8972 49.4521 82.2196 49.2574L82.2498 49.2366C82.6062 49.0135 83.0078 48.7261 83.4566 48.3707C83.9054 48.0172 84.1694 47.7752 84.2486 47.6466L84.4919 48.021C83.4152 49.0192 82.6439 49.6714 82.1781 49.9758C81.9839 50.1043 81.7765 50.1913 81.5577 50.2385C81.339 50.2858 81.1334 50.2953 80.9411 50.2688C80.7487 50.2424 80.5658 50.1875 80.3905 50.1024C80.2151 50.0174 80.0774 49.9059 79.9756 49.7641C79.8738 49.6223 79.804 49.4635 79.7644 49.2876C79.7248 49.1118 79.7437 48.919 79.8247 48.711C79.8511 48.6241 79.9134 48.573 80.0114 48.5598C80.1076 48.5465 80.217 48.5484 80.3395 48.5636C80.4602 48.5806 80.6262 48.5408 80.8393 48.4425C81.0505 48.3442 81.2654 48.1779 81.4804 47.9416C81.8293 47.571 82.0518 47.1022 82.1461 46.535C82.2404 46.0227 82.1744 45.7108 81.9443 45.603C81.6614 45.4896 81.2334 45.7221 80.662 46.3025C80.4998 46.4651 80.3829 46.5766 80.3075 46.6371C79.9982 47.3064 79.5268 48.5295 78.8932 50.3123C78.4953 51.4466 78.401 52.1858 78.6103 52.5299C78.6179 52.5507 78.6198 52.5677 78.6198 52.5809C78.6198 52.5942 78.6122 52.6055 78.599 52.6168C78.5858 52.6263 78.5707 52.6339 78.5538 52.6377C78.5368 52.6414 78.5179 52.6433 78.4934 52.6433H78.3577C77.9673 52.5961 77.6863 52.373 77.5147 51.9741C77.3431 51.5752 77.3149 51.0931 77.428 50.5259L77.4355 50.5221Z" fill="#71AD41"></path>
<path d="M87.0316 44.9082C87.1731 44.929 87.1768 45.0406 87.043 45.2429C87.0147 45.2901 86.9223 45.4244 86.7601 45.6475C86.0718 46.6116 85.6551 47.4831 85.508 48.2602C85.4137 48.7801 85.4835 49.0561 85.7192 49.0901H85.7908C85.9983 49.0769 86.2302 48.937 86.4829 48.6704C86.7356 48.4039 86.9355 48.1429 87.0844 47.8858L87.307 47.5002L87.5502 47.8745C87.5295 47.9274 87.4974 47.9993 87.454 48.0862C87.4088 48.1751 87.3164 48.3358 87.175 48.5721C87.0335 48.8084 86.8902 49.022 86.7469 49.2149C86.6017 49.4077 86.4207 49.6006 86.2019 49.7915C85.9832 49.9843 85.7644 50.1148 85.5495 50.181C84.9913 50.3625 84.567 50.2452 84.2766 49.8255C83.9862 49.4077 83.9127 48.8443 84.0541 48.1354C84.1616 47.6363 84.3539 47.1126 84.6292 46.5662C84.9668 45.9178 85.3137 45.4546 85.6758 45.1729C86.036 44.8932 86.4886 44.8043 87.0335 44.9045L87.0316 44.9082ZM86.5225 43.825C86.7016 43.7512 86.8883 43.7229 87.0826 43.7437C87.2787 43.7645 87.422 43.8269 87.5163 43.9309C87.6106 44.0367 87.6275 44.152 87.5672 44.2806C87.5068 44.4091 87.3862 44.5112 87.2089 44.585C87.0298 44.6587 86.8431 44.687 86.647 44.6663C86.4527 44.6455 86.3075 44.5831 86.2132 44.4791C86.119 44.3732 86.102 44.2579 86.1623 44.1294C86.2227 44.0008 86.3434 43.9006 86.5206 43.825H86.5225Z" fill="#71AD41"></path>
<path d="M87.0505 47.0901C87.3673 46.3414 87.8368 45.7478 88.4591 45.3073C89.0814 44.8687 89.7263 44.7364 90.3939 44.9122C90.4278 44.9198 90.507 44.9576 90.6315 45.0237C90.7559 45.0918 90.8313 45.1429 90.8596 45.1769C90.9068 45.1164 91.0105 45.054 91.1727 44.9897C91.3348 44.9255 91.531 44.9027 91.7629 44.9198C91.9948 44.9368 92.1891 45.0256 92.3437 45.1882C92.3644 45.2147 92.3776 45.2374 92.3833 45.2544C92.3908 45.2714 92.389 45.2865 92.3795 45.2998C92.3701 45.313 92.3531 45.3319 92.3286 45.3565C92.3041 45.3811 92.2777 45.4094 92.2475 45.4415C92.2174 45.4737 92.1815 45.5266 92.1419 45.5928C92.1023 45.6609 92.0608 45.7384 92.0212 45.8253C91.8591 46.211 91.7308 46.5343 91.6365 46.797C91.4216 47.4323 91.3009 47.973 91.2783 48.4172C91.2538 48.8634 91.3405 49.0884 91.5366 49.096C91.7459 49.096 91.976 48.9636 92.2287 48.7008C92.4814 48.438 92.6812 48.1715 92.8302 47.9011L93.0527 47.506L93.296 47.8803C93.2752 47.9332 93.2432 48.0051 93.1998 48.0921C93.1564 48.1809 93.064 48.3416 92.9226 48.578C92.7812 48.8143 92.6379 49.0279 92.4927 49.2207C92.3475 49.4136 92.1664 49.6064 91.9477 49.7973C91.729 49.9883 91.5102 50.1206 91.2971 50.1868C90.9464 50.3002 90.6428 50.2907 90.3882 50.1565C90.1317 50.0223 89.9507 49.7917 89.8432 49.4684C89.4058 49.8541 89.0248 50.0998 88.7024 50.2076C88.3309 50.3286 87.9745 50.3134 87.6313 50.1565C87.2881 50.0015 87.0279 49.7387 86.8487 49.3663C86.6696 48.9939 86.6281 48.5874 86.7224 48.1412C86.7903 47.8179 86.9015 47.4663 87.0561 47.0882L87.0505 47.0901ZM88.8287 49.1357C88.957 49.1224 89.0739 49.0903 89.1776 49.0392C89.2832 48.9882 89.3756 48.905 89.4604 48.7859C89.5453 48.6668 89.6113 48.5685 89.6622 48.4872C89.7131 48.4059 89.7678 48.266 89.8282 48.0675C89.8885 47.869 89.93 47.7215 89.9545 47.627C89.979 47.5325 90.0205 47.3605 90.0808 47.1109C89.8659 47.1922 89.6905 47.1922 89.5547 47.1109C89.4265 47.0296 89.4699 46.9256 89.6848 46.797L89.7565 46.7573C89.9319 46.6628 90.0658 46.5021 90.16 46.2715C90.2411 46.0616 90.26 45.8934 90.2166 45.7648C90.1714 45.6363 90.094 45.5625 89.979 45.5418C89.8659 45.5285 89.7244 45.5814 89.5547 45.7043C89.385 45.8253 89.2153 46.0144 89.0399 46.2715C88.5741 46.9464 88.2819 47.6327 88.1612 48.3265C88.114 48.6025 88.1404 48.818 88.2423 48.9693C88.3441 49.1205 88.5383 49.1772 88.8287 49.1357Z" fill="#71AD41"></path>
<path d="M127.79 22.8579C126.928 22.6462 126.045 22.3191 125.289 21.837C126.189 23.374 126.255 25.2664 126.173 26.3837C123.381 31.991 119.558 37.381 114.708 42.285C113.856 41.6555 113.056 40.8955 112.489 40.0183C112.581 43.1962 110.037 46.4517 109.551 46.9924C105.845 50.0475 101.697 52.8379 97.1372 55.2654C96.151 54.4411 95.2251 53.4372 94.6669 52.3124C94.3671 54.6869 92.5134 56.9158 91.3367 58.0596C88.5779 59.2582 85.6984 60.3301 82.7077 61.2583C78.3686 62.6044 73.8542 63.6763 69.221 64.4836C68.1273 63.3625 67.0713 61.956 66.6206 60.4832C65.8381 62.8067 63.3828 64.6613 61.9478 65.5291C53.7713 66.4668 45.3309 66.652 36.8263 66.2494C35.891 64.9071 35.0424 63.2888 34.8406 61.7348C33.564 63.8994 30.5525 65.1982 28.9176 65.7181C23.3377 65.236 17.7503 64.5384 12.1799 63.6896C20.0038 68.8866 27.9521 73.5109 35.7231 77.7381C51.2275 77.5169 66.8299 75.7134 80.4071 71.4105C93.9824 67.1701 105.531 60.4303 112.881 51.7849C99.6754 69.2818 70.4185 78.6493 40.7278 80.4246C41.4576 80.8121 42.1836 81.194 42.9096 81.5759C47.9633 84.2339 52.7266 86.6727 57.2165 89C73.8316 85.6159 89.9639 80.1523 101.697 72.282C116.043 62.767 125.495 50.3575 130.233 37.7761C135.031 25.1246 135.116 12.3012 132.076 0.360596C132.21 7.87356 130.856 15.4943 127.79 22.8503V22.8579Z" fill="url('#paint0_linear_160_1331')"></path>
<path d="M36.5567 17.2529C36.5076 17.2775 36.4586 17.3115 36.4171 17.3512C36.3228 17.4401 36.2342 17.5365 36.1399 17.6254C35.9532 17.8069 35.7609 17.9827 35.5704 18.1604C35.1933 18.5158 34.8218 18.8807 34.522 19.3042C33.977 20.0717 33.6941 21.1304 34.1486 21.9547C34.3975 22.4084 34.8388 22.7298 35.3177 22.9245C35.7967 23.1192 36.3134 23.1949 36.8244 23.2535C39.0477 23.503 41.337 23.4482 43.5546 23.1589C45.7722 22.8697 47.9672 22.4519 50.164 22.0568C52.3609 21.6617 54.5596 21.2854 56.781 21.0813C58.0916 20.9603 59.3965 20.9149 60.7108 20.9036C60.1602 20.8657 59.6096 20.8279 59.0608 20.7977C58.0444 20.7391 57.0186 20.8015 56.0022 20.8468C53.7412 20.9451 51.484 21.121 49.2362 21.3838C46.9658 21.6503 44.686 21.8961 42.3967 21.9264C41.3803 21.9396 40.3639 21.9112 39.3513 21.8224C38.6592 21.7619 37.9653 21.6711 37.3091 21.4443C36.9225 21.31 36.5359 21.1153 36.304 20.7788C36.0306 20.3818 36.0211 19.8619 36.0664 19.3817C36.1003 19.0168 36.1626 18.6538 36.2474 18.2984C36.2908 18.1207 36.3398 17.943 36.3945 17.769C36.4341 17.6443 36.5887 17.3645 36.551 17.2567L36.5567 17.2529Z" fill="#9DDC63"></path>
<path d="M38.4725 18.4939C38.4725 18.4939 37.2298 17.6431 36.8112 16.3349C36.4473 15.1949 36.3549 13.9018 36.7678 12.7524C37.4938 10.7333 39.6379 9.28698 41.7876 9.73882C42.1421 9.81255 42.4853 9.93545 42.8116 10.0924C43.4093 10.3797 43.9487 10.7975 44.3711 11.3099C44.8387 11.8789 45.0028 12.499 45.2781 13.1626C45.3629 13.3668 45.4931 13.5634 45.6911 13.6598C45.8551 13.7411 46.0475 13.7449 46.2304 13.7411C46.4378 13.7373 46.6452 13.726 46.8451 13.6692C47.0431 13.6106 47.226 13.5086 47.4052 13.4046C47.9143 13.1115 48.4178 12.8072 48.9137 12.4933C49.2871 12.257 49.6341 11.9508 50.0244 11.7466C50.4148 11.5424 50.9334 11.4176 51.3784 11.3155C52.3194 11.0981 53.2924 11.0282 54.256 11.0565C55.4364 11.0905 56.6075 11.2664 57.7672 11.4819C59.2362 11.7541 60.6712 12.1795 62.0893 12.6484C63.4526 13.0983 64.8669 13.5085 66.1926 14.0454C67.6936 14.6542 69.3757 14.8054 70.9597 14.4708C71.8045 14.2912 72.6135 13.9812 73.4262 13.6957C74.833 13.2023 76.2755 12.7788 77.7577 12.5954C79.2191 12.4139 80.7013 12.5066 82.1514 12.7391C83.5997 12.9716 84.9838 13.4291 86.415 13.7203C85.9681 13.6692 85.5174 13.6465 85.0686 13.6125C82.0779 13.3856 79.0004 13.2174 76.0323 13.743C76.0021 13.7487 75.9719 13.7543 75.9418 13.76C74.1484 14.087 72.4136 14.6769 70.6599 15.1741C69.3153 15.556 67.7106 15.4955 66.3812 15.0871C64.9273 14.641 63.4734 14.2005 62.0044 13.8091C59.2437 13.0737 56.417 12.5122 53.5526 12.4574C52.6588 12.4404 51.7518 12.4744 50.8938 12.7278C49.9471 13.0076 49.0985 13.5426 48.1991 13.9509C47.6503 14.2005 47.0695 14.4009 46.468 14.4632C46.1644 14.4954 45.84 14.4992 45.5402 14.4311C45.28 14.3725 45.1781 14.1721 45.0443 13.949C44.6407 13.2703 44.1881 12.6219 43.6922 12.0075C43.4848 11.7503 43.2698 11.4989 43.0133 11.2928C42.523 10.8996 41.8989 10.6898 41.2728 10.652C40.0924 10.5801 39.0778 11.0357 38.2613 11.8676C37.5598 12.5822 37.1016 13.5123 36.9998 14.5143C36.8414 16.0626 37.4976 17.3614 38.4725 18.4995V18.4939Z" fill="#9DDC63"></path>
<path d="M48.7009 15.3715C48.6198 15.2713 48.3388 15.5114 48.2577 15.5814C47.8731 15.916 47.7015 16.4605 47.7637 16.969C47.8259 17.4757 48.105 17.9427 48.4821 18.2867C48.8253 18.6006 49.3024 18.8936 49.7607 18.99C49.6513 18.9673 49.4005 18.6629 49.31 18.5873C49.112 18.4209 48.9196 18.2452 48.7537 18.0448C48.5029 17.7461 48.3087 17.3849 48.2691 16.9955C48.2389 16.7006 48.2955 16.4037 48.3898 16.1221C48.4275 16.0105 48.4689 15.9028 48.518 15.795C48.55 15.725 48.7348 15.4717 48.7216 15.4093C48.7179 15.3923 48.7122 15.3791 48.7047 15.3696L48.7009 15.3715Z" fill="#9DDC63"></path>
<path d="M54.1844 4.78894C54.1542 4.93451 54.0882 5.06874 54.0486 5.21242C53.9902 5.42416 53.9053 5.62643 53.7978 5.81738C53.5885 6.18792 53.2944 6.51123 52.938 6.74377C52.6306 6.94605 52.2836 7.08028 51.9404 7.21261C51.3521 7.44137 50.7618 7.67201 50.1622 7.8743C49.7322 8.01987 49.2966 8.15218 48.8969 8.36581C47.9502 8.87058 47.2921 9.77427 46.6811 10.6553C46.3606 11.1166 46.0362 11.6005 45.9382 12.1544C45.9306 12.1922 45.9269 12.2376 45.9551 12.266C45.9778 12.2887 46.0136 12.2924 46.0438 12.2906C46.3662 12.2811 46.6133 12.0164 46.8226 11.7688C47.228 11.2905 47.6334 10.8122 48.0407 10.332C48.2595 10.0749 48.4782 9.81586 48.7422 9.60601C49.3683 9.11069 50.2169 8.93301 51.0032 9.06534C51.0522 9.0729 51.1032 9.08425 51.1409 9.1145C51.2125 9.17121 51.2201 9.28272 51.1805 9.36401C51.1409 9.44531 51.0636 9.50391 50.9862 9.55118C50.396 9.9066 49.6191 9.831 49.0345 10.1959C48.9402 10.2545 48.8422 10.3566 48.8818 10.4605C48.9138 10.5456 49.0175 10.5739 49.1081 10.5872C49.6002 10.6534 50.1 10.5721 50.5884 10.4738C51.1805 10.3547 51.7707 10.2072 52.3213 9.95577C52.872 9.70433 53.3792 9.34134 53.7356 8.85169C54.1505 8.27886 54.3334 7.56044 54.3654 6.85339C54.3975 6.18414 54.3485 5.4355 54.1825 4.78516L54.1844 4.78894Z" fill="url('#paint1_radial_160_1331')"></path>
<path d="M48.4252 10.2287C48.5081 10.3023 48.5476 10.5515 48.5533 10.6554C48.5627 10.8555 48.5721 11.0594 48.5344 11.2557C48.4968 11.452 48.412 11.6484 48.2595 11.7787C48.2407 11.7956 48.2162 11.8108 48.1917 11.8051C48.1597 11.7957 48.1522 11.7541 48.1503 11.7201C48.1333 11.3482 48.1409 10.9744 48.1729 10.6025C48.1804 10.5194 48.1898 10.4345 48.2275 10.3608C48.3085 10.206 48.3744 10.1853 48.4252 10.2306V10.2287Z" fill="url('#paint2_radial_160_1331')"></path>
<path d="M47.9774 10.7138C48.0565 10.727 48 10.963 47.9567 11.1443C47.9077 11.3501 47.855 11.5653 47.774 11.7616C47.6384 12.092 47.435 12.3997 47.1545 12.6187C47.1206 12.647 47.066 12.6716 47.0358 12.6376C47.0264 12.6263 47.0226 12.6112 47.0189 12.5979C46.9511 12.277 47.0302 11.9372 47.1808 11.6445C47.3315 11.3519 47.5499 11.1008 47.7721 10.8611C47.8776 10.7478 47.9397 10.7063 47.9755 10.7119L47.9774 10.7138Z" fill="url('#paint3_radial_160_1331')"></path>
<path d="M61.0261 7.0293C61.0713 7.17109 61.1524 7.29773 61.2071 7.43574C61.2882 7.63992 61.3938 7.83276 61.522 8.01047C61.769 8.35644 62.0972 8.64378 62.4762 8.83661C62.8043 9.00298 63.1626 9.09942 63.5171 9.19584C64.1281 9.36031 64.739 9.52289 65.3557 9.6609C65.7988 9.75921 66.2457 9.8443 66.6681 10.0126C67.6638 10.4115 68.4143 11.2376 69.1177 12.0487C69.4854 12.474 69.8607 12.9183 70.0191 13.459C70.0304 13.4968 70.0379 13.5403 70.0153 13.5724C69.9964 13.597 69.9606 13.6046 69.9285 13.6065C69.608 13.6329 69.3327 13.3947 69.0988 13.1735C68.6444 12.7425 68.188 12.3095 67.7336 11.8785C67.4884 11.646 67.2433 11.4134 66.9566 11.2338C66.2816 10.8085 65.4179 10.7253 64.6504 10.9427C64.6033 10.9559 64.5542 10.9711 64.5184 11.007C64.4543 11.0713 64.4581 11.1828 64.5052 11.2584C64.5524 11.334 64.6353 11.3851 64.7183 11.4229C65.3425 11.7121 66.1081 11.5514 66.7285 11.852C66.8284 11.9012 66.9359 11.9919 66.9095 12.0997C66.8869 12.1885 66.7869 12.2282 66.6983 12.249C66.2156 12.3681 65.7102 12.3417 65.2161 12.2963C64.6146 12.2415 64.0112 12.1602 63.4379 11.9692C62.8646 11.7783 62.3197 11.4739 61.9124 11.0259C61.4372 10.5003 61.1788 9.80838 61.0694 9.10699C60.9657 8.4453 60.9337 7.69477 61.0279 7.03119L61.0261 7.0293Z" fill="url('#paint4_radial_160_1331')"></path>
<path d="M67.3375 11.8051C67.264 11.8882 67.249 12.1393 67.2565 12.2431C67.2697 12.4432 67.2829 12.6453 67.3394 12.8378C67.3959 13.0304 67.5032 13.2135 67.6689 13.3268C67.6896 13.3419 67.716 13.3551 67.7386 13.3457C67.7706 13.3324 67.7725 13.2909 67.7706 13.2569C67.748 12.885 67.699 12.515 67.6275 12.1487C67.6105 12.0675 67.5936 11.9826 67.5465 11.9127C67.4486 11.7674 67.3808 11.7542 67.3375 11.8051Z" fill="url('#paint5_radial_160_1331')"></path>
<path d="M67.833 12.2407C67.7558 12.2615 67.8368 12.4918 67.9008 12.6674C67.9724 12.8656 68.0477 13.0752 68.1494 13.2621C68.3208 13.5755 68.5562 13.8587 68.8575 14.0475C68.8951 14.0701 68.9516 14.089 68.9761 14.0531C68.9836 14.0418 68.9855 14.0267 68.9874 14.0116C69.0213 13.685 68.9045 13.3565 68.7238 13.0828C68.543 12.809 68.2982 12.5825 68.0515 12.3672C67.9347 12.2653 67.8688 12.2332 67.833 12.2426V12.2407Z" fill="url('#paint6_radial_160_1331')"></path>
<defs>
<linearGradient id="paint0_linear_160_1331" x1="32.0912" y1="88.3837" x2="129.246" y2="10.0383" gradientUnits="userSpaceOnUse">
<stop stop-color="#2E660D"></stop>
<stop offset="1" stop-color="#9DDC63"></stop>
</linearGradient>
<radialGradient id="paint1_radial_160_1331" cx="0" cy="0" r="1" gradientUnits="userSpaceOnUse" gradientTransform="translate(58.1765 -0.474293) scale(17.1827 17.2265)">
<stop stop-color="#2E660D"></stop>
<stop offset="1" stop-color="#9DDC63"></stop>
</radialGradient>
<radialGradient id="paint2_radial_160_1331" cx="0" cy="0" r="1" gradientUnits="userSpaceOnUse" gradientTransform="translate(58.1628 -0.456991) scale(17.1589 17.2028)">
<stop stop-color="#2E660D"></stop>
<stop offset="1" stop-color="#9DDC63"></stop>
</radialGradient>
<radialGradient id="paint3_radial_160_1331" cx="0" cy="0" r="1" gradientUnits="userSpaceOnUse" gradientTransform="translate(58.1612 -0.456851) scale(17.1589 17.2025)">
<stop stop-color="#2E660D"></stop>
<stop offset="1" stop-color="#9DDC63"></stop>
</radialGradient>
<radialGradient id="paint4_radial_160_1331" cx="0" cy="0" r="1" gradientUnits="userSpaceOnUse" gradientTransform="translate(58.1767 -0.470448) scale(17.1827 17.2265)">
<stop stop-color="#2E660D"></stop>
<stop offset="1" stop-color="#9DDC63"></stop>
</radialGradient>
<radialGradient id="paint5_radial_160_1331" cx="0" cy="0" r="1" gradientUnits="userSpaceOnUse" gradientTransform="translate(58.1893 -0.456741) scale(17.1589 17.2025)">
<stop stop-color="#2E660D"></stop>
<stop offset="1" stop-color="#9DDC63"></stop>
</radialGradient>
<radialGradient id="paint6_radial_160_1331" cx="0" cy="0" r="1" gradientUnits="userSpaceOnUse" gradientTransform="translate(58.1897 -0.455571) scale(17.1588 17.2028)">
<stop stop-color="#2E660D"></stop>
<stop offset="1" stop-color="#9DDC63"></stop>
</radialGradient>
</defs>
</svg>
