<svg width="159" height="161" viewBox="0 0 159 161" fill="none" xmlns="http://www.w3.org/2000/svg">
<path d="M36.338 130.669C36.4059 130.745 36.3757 130.781 36.2456 130.781C35.9741 130.767 35.6686 130.635 35.3292 130.382C34.7861 129.973 34.5013 129.433 34.473 128.758C34.4315 127.839 34.8672 126.93 35.7761 126.032C36.1287 125.678 36.5813 125.317 37.13 124.948C37.6806 124.582 38.2822 124.247 38.9384 123.948C39.5928 123.65 40.2339 123.445 40.8581 123.341C41.4823 123.236 42.0423 123.268 42.5383 123.438C42.7891 123.534 43.0153 123.733 43.2152 124.035C43.4151 124.338 43.5471 124.621 43.6075 124.882C43.6678 125.145 43.6659 125.283 43.598 125.296C43.5697 125.304 43.5264 125.283 43.466 125.234C43.4038 125.187 43.3114 125.126 43.1851 125.05C43.0587 124.977 42.9211 124.918 42.7721 124.877C42.3308 124.754 41.6897 124.833 40.8468 125.111C41.0165 125.137 41.1108 125.179 41.1315 125.234C41.1523 125.289 41.1391 125.383 41.0957 125.519C41.0523 125.655 41.0391 125.788 41.0599 125.918C41.107 126.217 41.1787 126.782 41.2729 127.614C41.3672 128.444 41.4351 129.017 41.4766 129.329C41.9254 129.03 42.4383 128.692 43.0191 128.317C43.5999 127.943 44.0713 127.637 44.4353 127.399C44.7992 127.16 45.0576 126.983 45.2141 126.867C45.9194 126.37 46.502 125.854 46.9603 125.321C47.4185 124.786 47.5731 124.383 47.4242 124.111C47.3091 123.893 47.3487 123.778 47.5467 123.763C47.7768 123.75 48.0219 123.852 48.2803 124.069C48.3878 124.166 48.4726 124.264 48.5348 124.366C48.6027 124.476 48.6367 124.606 48.6367 124.759C48.6367 124.912 48.6046 125.086 48.5405 125.281C48.4764 125.476 48.3632 125.689 48.2048 125.924C48.0446 126.158 47.8447 126.404 47.6033 126.659C47.3619 126.915 47.0564 127.192 46.6868 127.491C46.3172 127.79 45.8967 128.09 45.4291 128.389C43.9356 129.363 42.6948 130.208 41.7104 130.922C41.8047 131.488 41.9084 131.998 42.0216 132.454C42.1328 132.909 42.2761 133.357 42.4496 133.796C42.6231 134.235 42.8136 134.594 43.0248 134.874C43.236 135.153 43.4868 135.361 43.7791 135.496C44.0713 135.632 44.3863 135.666 44.7257 135.598C44.8011 135.585 44.8388 135.622 44.8388 135.709C44.8313 135.893 44.7068 136.097 44.4617 136.322C44.1826 136.581 43.8601 136.726 43.4943 136.76C43.0738 136.802 42.6891 136.7 42.344 136.46C41.9971 136.218 41.701 135.859 41.4521 135.382C41.2051 134.906 40.992 134.386 40.8147 133.824C40.6375 133.263 40.4847 132.628 40.3565 131.921C40.0378 132.166 39.6418 132.507 39.1704 132.942C38.6989 133.376 38.1992 133.86 37.6731 134.392C37.147 134.923 36.6982 135.448 36.3286 135.97C35.959 136.492 35.7666 136.898 35.7534 137.191C35.7402 137.641 35.7025 137.91 35.6422 137.999C35.5743 138.095 35.4593 138.125 35.2952 138.091C35.2349 138.031 35.1594 137.946 35.0708 137.842C34.9822 137.736 34.8558 137.522 34.688 137.199C34.5221 136.876 34.4127 136.551 34.3618 136.223C34.3109 135.896 34.3618 135.507 34.5202 135.053C34.6767 134.6 34.969 134.174 35.397 133.771C36.3003 132.921 37.8654 131.747 40.0925 130.248C40.017 129.656 39.9567 129.053 39.9096 128.44C39.8624 127.828 39.8209 127.221 39.787 126.618C39.753 126.015 39.7323 125.667 39.7266 125.57C38.9384 125.952 38.2162 126.402 37.5562 126.924C36.8981 127.444 36.453 127.937 36.2211 128.4C36.0382 128.822 35.9552 129.202 35.9722 129.539C35.9892 129.875 36.0552 130.149 36.1702 130.361L36.3342 130.667L36.338 130.669Z" fill="#71AD41"></path>
<path d="M45.9235 129.628C46.2422 128.872 46.7155 128.272 47.3434 127.83C47.9714 127.388 48.6219 127.255 49.2933 127.431C49.3272 127.439 49.4064 127.475 49.5327 127.543C49.6591 127.611 49.7345 127.662 49.7628 127.696C49.8099 127.633 49.9155 127.571 50.0777 127.507C50.2399 127.442 50.4398 127.418 50.6736 127.435C50.9074 127.452 51.1036 127.543 51.2601 127.705C51.2808 127.734 51.294 127.754 51.3016 127.771C51.3072 127.788 51.3072 127.804 51.2959 127.817C51.2865 127.83 51.2676 127.849 51.245 127.874C51.2205 127.898 51.1941 127.926 51.1639 127.961C51.1337 127.995 51.0979 128.046 51.0564 128.114C51.0168 128.182 50.9753 128.261 50.9338 128.348C50.7698 128.736 50.6415 129.063 50.5473 129.327C50.3304 129.968 50.2097 130.513 50.1852 130.961C50.1607 131.411 50.2474 131.638 50.4454 131.645C50.6566 131.645 50.8886 131.513 51.1432 131.246C51.3977 130.982 51.5995 130.711 51.7485 130.439L51.9729 130.04L52.218 130.418C52.1973 130.473 52.1652 130.545 52.1218 130.632C52.0785 130.721 51.9842 130.883 51.8428 131.121C51.6994 131.36 51.5561 131.575 51.409 131.77C51.2638 131.965 51.079 132.157 50.8584 132.352C50.6378 132.547 50.419 132.677 50.2022 132.745C49.8495 132.861 49.5441 132.851 49.2857 132.715C49.0274 132.579 48.8445 132.348 48.7351 132.021C48.2938 132.409 47.9091 132.658 47.5848 132.766C47.2114 132.889 46.8513 132.872 46.5043 132.715C46.1573 132.558 45.8952 132.294 45.7142 131.919C45.5331 131.545 45.4917 131.133 45.5859 130.683C45.6538 130.356 45.7651 130.002 45.9216 129.62L45.9235 129.628ZM47.7168 131.691C47.845 131.677 47.9619 131.645 48.0675 131.594C48.1731 131.543 48.2674 131.458 48.3523 131.339C48.4371 131.22 48.505 131.12 48.5559 131.038C48.6069 130.957 48.6634 130.815 48.7238 130.615C48.7841 130.414 48.8275 130.265 48.8501 130.171C48.8746 130.074 48.9161 129.902 48.9783 129.649C48.7615 129.73 48.5842 129.73 48.4485 129.649C48.3202 129.567 48.3636 129.462 48.5805 129.331L48.6521 129.29C48.8294 129.195 48.9651 129.031 49.0594 128.8C49.1405 128.588 49.1594 128.418 49.116 128.289C49.0726 128.159 48.9915 128.085 48.8765 128.064C48.7615 128.051 48.6182 128.106 48.4485 128.227C48.2787 128.35 48.1053 128.541 47.928 128.8C47.4603 129.48 47.1643 130.172 47.0417 130.874C46.9946 131.154 47.021 131.369 47.1228 131.522C47.2246 131.675 47.4207 131.732 47.713 131.691H47.7168Z" fill="#71AD41"></path>
<path d="M52.4817 128.207C52.5703 127.995 52.5778 127.853 52.5024 127.778C52.4006 127.676 52.493 127.581 52.7777 127.492C53.1718 127.369 53.5528 127.332 53.9186 127.381C54.1147 127.409 54.2165 127.466 54.2241 127.555C54.2241 127.698 54.1562 127.891 54.0204 128.137C53.9997 128.171 53.9242 128.303 53.796 128.536C53.6659 128.766 53.5678 128.948 53.5 129.077C53.5264 129.042 53.6056 128.95 53.7338 128.8C53.8639 128.651 53.945 128.558 53.9789 128.524C54.0129 128.49 54.0864 128.413 54.1977 128.29C54.3089 128.167 54.3919 128.09 54.4428 128.056C54.4937 128.022 54.571 127.959 54.6766 127.867C54.7822 127.774 54.8728 127.712 54.952 127.678C55.0293 127.643 55.1236 127.6 55.2329 127.551C55.3404 127.5 55.4517 127.46 55.5648 127.434C55.678 127.407 55.7968 127.383 55.9269 127.362C56.1305 127.335 56.2927 127.337 56.4115 127.367C56.5303 127.398 56.602 127.477 56.6246 127.602C56.6491 127.729 56.5642 127.92 56.3757 128.179C55.6836 129.152 55.2612 130.031 55.1122 130.814C55.0161 131.338 55.0877 131.617 55.3253 131.651H55.397C55.6082 131.638 55.8401 131.496 56.0947 131.228C56.3493 130.959 56.551 130.695 56.7 130.436L56.9244 130.048L57.1696 130.426C57.1488 130.481 57.1168 130.553 57.0734 130.64C57.03 130.729 56.9357 130.891 56.7924 131.13C56.6491 131.368 56.5058 131.583 56.3587 131.778C56.2135 131.973 56.0287 132.166 55.8081 132.36C55.5874 132.555 55.3687 132.686 55.1518 132.754C54.588 132.937 54.16 132.818 53.8677 132.396C53.5754 131.975 53.5018 131.406 53.6433 130.691C53.7187 130.29 53.8601 129.871 54.0713 129.436C53.8469 129.491 53.6131 129.653 53.368 129.925C53.1228 130.198 52.9229 130.504 52.7664 130.844C52.6099 131.184 52.5005 131.53 52.4345 131.88C52.3704 132.232 52.4062 132.512 52.542 132.723C52.576 132.786 52.5477 132.82 52.4609 132.831C52.3723 132.841 52.3157 132.839 52.2874 132.825C52.0027 132.771 51.7726 132.67 51.5991 132.525C51.4257 132.379 51.3125 132.213 51.2578 132.03C51.2031 131.846 51.1862 131.631 51.2069 131.387C51.2277 131.141 51.2729 130.903 51.3446 130.672C51.4162 130.441 51.5086 130.192 51.6199 129.927C51.7312 129.663 51.8405 129.432 51.9461 129.237C52.0517 129.042 52.1573 128.844 52.2667 128.64C52.3761 128.436 52.4458 128.292 52.4798 128.211L52.4817 128.207Z" fill="#71AD41"></path>
<path d="M63.8713 125.278C64.1089 125.346 64.0165 125.596 63.596 126.023C62.8417 126.758 62.2269 127.779 61.7517 129.088C61.3859 130.082 61.2388 130.827 61.3142 131.324C61.3406 131.541 61.4217 131.651 61.5594 131.651C61.7706 131.651 62.0025 131.519 62.2571 131.252C62.5117 130.988 62.7134 130.717 62.8624 130.445L63.0868 130.046L63.332 130.424C63.3112 130.479 63.2792 130.551 63.2358 130.638C63.1905 130.727 63.0981 130.889 62.9548 131.127C62.8115 131.366 62.6682 131.581 62.5211 131.776C62.3759 131.971 62.1911 132.163 61.9705 132.358C61.7498 132.553 61.5311 132.683 61.3142 132.751C60.9616 132.867 60.6561 132.857 60.3978 132.721C60.1394 132.585 59.9565 132.354 59.8472 132.027C59.4059 132.415 59.0212 132.664 58.6969 132.772C58.3235 132.895 57.9633 132.878 57.6163 132.721C57.2694 132.564 57.0073 132.3 56.8262 131.925C56.6452 131.551 56.6037 131.139 56.698 130.689C56.7659 130.362 56.8771 130.008 57.0337 129.626C57.3523 128.87 57.8257 128.271 58.4536 127.828C59.0815 127.386 59.7321 127.254 60.4034 127.43C60.6071 127.477 60.7636 127.566 60.873 127.694C61.2803 126.878 61.7366 126.237 62.242 125.773C62.7474 125.31 63.2905 125.144 63.8675 125.272L63.8713 125.278ZM60.0923 129.649C59.8754 129.73 59.6982 129.73 59.5624 129.649C59.4342 129.568 59.4776 129.462 59.6944 129.331L59.7661 129.29C59.9433 129.195 60.0791 129.031 60.1734 128.8C60.2545 128.588 60.2733 128.418 60.23 128.29C60.1866 128.159 60.1055 128.086 59.9905 128.065C59.8754 128.052 59.7321 128.106 59.5624 128.227C59.3927 128.35 59.2192 128.541 59.0419 128.8C58.5743 129.481 58.2782 130.173 58.1557 130.874C58.1085 131.154 58.1368 131.369 58.2424 131.523C58.348 131.676 58.5422 131.732 58.8289 131.691C58.9307 131.678 59.0231 131.657 59.1042 131.63C59.1853 131.604 59.2607 131.558 59.3286 131.498C59.3965 131.436 59.4549 131.386 59.5021 131.351C59.5492 131.313 59.5963 131.241 59.6454 131.137C59.6944 131.033 59.7302 130.955 59.7566 130.906C59.783 130.857 59.8151 130.764 59.8528 130.625C59.8905 130.485 59.915 130.388 59.9301 130.333C59.9433 130.279 59.9716 130.165 60.0112 129.991C60.0527 129.817 60.0791 129.704 60.0923 129.649Z" fill="#71AD41"></path>
<path d="M62.8716 129.628C63.1903 128.872 63.6636 128.272 64.2915 127.83C64.9195 127.388 65.5701 127.255 66.2414 127.431C66.2753 127.439 66.3545 127.475 66.4809 127.543C66.6072 127.611 66.6826 127.662 66.7109 127.696C66.7581 127.633 66.8637 127.571 67.0258 127.507C67.188 127.442 67.3879 127.418 67.6217 127.435C67.8556 127.452 68.0517 127.543 68.2082 127.705C68.2289 127.734 68.2421 127.754 68.2497 127.771C68.2553 127.788 68.2553 127.804 68.244 127.817C68.2346 127.83 68.2157 127.849 68.1931 127.874C68.1686 127.898 68.1422 127.926 68.112 127.961C68.0818 127.995 68.046 128.046 68.0045 128.114C67.9649 128.182 67.9234 128.261 67.882 128.348C67.7179 128.736 67.5897 129.063 67.4954 129.327C67.2785 129.968 67.1578 130.513 67.1333 130.961C67.1088 131.411 67.1956 131.638 67.3936 131.645C67.6048 131.645 67.8367 131.513 68.0913 131.246C68.3458 130.982 68.5476 130.711 68.6966 130.439L68.921 130.04L69.1661 130.418C69.1454 130.473 69.1133 130.545 69.07 130.632C69.0266 130.721 68.9323 130.883 68.7909 131.121C68.6476 131.36 68.5042 131.575 68.3572 131.77C68.2101 131.965 68.0272 132.157 67.8065 132.352C67.5859 132.547 67.3672 132.677 67.1503 132.745C66.7977 132.861 66.4922 132.851 66.2338 132.715C65.9755 132.579 65.7926 132.348 65.6832 132.021C65.2419 132.409 64.8573 132.658 64.5329 132.766C64.1595 132.889 63.7994 132.872 63.4524 132.715C63.1054 132.558 62.8433 132.294 62.6623 131.919C62.4813 131.545 62.4398 131.133 62.5341 130.683C62.6019 130.356 62.7132 130.002 62.8697 129.62L62.8716 129.628ZM64.6649 131.691C64.7931 131.677 64.9101 131.645 65.0157 131.594C65.1213 131.543 65.2155 131.458 65.3004 131.339C65.3853 131.22 65.4532 131.12 65.5041 131.038C65.555 130.957 65.6115 130.815 65.6719 130.615C65.7322 130.414 65.7756 130.265 65.7982 130.171C65.8228 130.074 65.8642 129.902 65.9265 129.649C65.7096 129.73 65.5323 129.73 65.3966 129.649C65.2683 129.567 65.3117 129.462 65.5286 129.331L65.6002 129.29C65.7775 129.195 65.9133 129.031 66.0075 128.8C66.0886 128.588 66.1075 128.418 66.0641 128.289C66.0208 128.159 65.9397 128.085 65.8246 128.064C65.7096 128.051 65.5663 128.106 65.3966 128.227C65.2269 128.35 65.0534 128.541 64.8761 128.8C64.4085 129.48 64.1124 130.172 63.9898 130.874C63.9427 131.154 63.9691 131.369 64.0709 131.522C64.1727 131.675 64.3689 131.732 64.6611 131.691H64.6649Z" fill="#71AD41"></path>
<path d="M69.86 132.752C69.6016 132.841 69.3697 132.86 69.1623 132.813C68.9548 132.766 68.7964 132.669 68.6833 132.527C68.572 132.384 68.4777 132.212 68.4023 132.011C68.3269 131.811 68.2911 131.594 68.2948 131.363C68.2986 131.132 68.3175 130.907 68.3514 130.69C68.4193 130.357 68.5249 129.966 68.6663 129.52C68.8096 129.073 69.0095 128.574 69.2679 128.019C69.5262 127.463 69.8034 126.971 70.1032 126.538C70.4012 126.105 70.7576 125.763 71.1668 125.512C71.576 125.26 71.9927 125.181 72.4151 125.277C72.5584 125.306 72.5848 125.408 72.4962 125.584C72.5905 125.686 72.649 125.805 72.6697 125.941C72.7168 126.172 72.4773 126.663 71.9475 127.412C71.4176 128.16 70.8405 128.886 70.2164 129.588C70.1013 129.881 70.0071 130.144 69.9373 130.38C69.8656 130.614 69.8128 130.834 69.7789 131.038C69.7449 131.242 69.7544 131.399 69.8091 131.507C69.8637 131.616 69.9618 131.664 70.1051 131.65C70.3163 131.637 70.5483 131.495 70.8028 131.227C71.0574 130.958 71.2592 130.694 71.4081 130.435L71.6325 130.047L71.8777 130.425C71.8569 130.48 71.8249 130.552 71.7815 130.639C71.7381 130.728 71.6439 130.89 71.5005 131.128C71.3572 131.367 71.2139 131.582 71.0668 131.777C70.9197 131.972 70.7368 132.164 70.5162 132.359C70.2956 132.554 70.0768 132.684 69.86 132.752ZM70.8066 128.279C71.3836 127.327 71.7061 126.737 71.774 126.514C71.5703 126.833 71.4081 127.105 71.2856 127.33C71.2309 127.412 71.0725 127.729 70.8066 128.279Z" fill="#71AD41"></path>
<path d="M71.612 129.628C71.9306 128.872 72.404 128.272 73.0319 127.83C73.6598 127.388 74.3104 127.255 74.9817 127.431C75.0157 127.439 75.0949 127.475 75.2212 127.543C75.3476 127.611 75.423 127.662 75.4513 127.696C75.4984 127.633 75.604 127.571 75.7662 127.507C75.9303 127.442 76.1283 127.418 76.3621 127.435C76.5959 127.452 76.792 127.543 76.9485 127.705C76.9693 127.734 76.9825 127.754 76.99 127.771C76.9957 127.788 76.9957 127.804 76.9844 127.817C76.9749 127.83 76.9561 127.849 76.9335 127.874C76.9089 127.898 76.8825 127.926 76.8524 127.961C76.8222 127.995 76.7864 128.046 76.7449 128.114C76.7053 128.182 76.6638 128.261 76.6223 128.348C76.4583 128.736 76.33 129.063 76.2357 129.327C76.0189 129.968 75.8982 130.513 75.8737 130.961C75.8492 131.411 75.9359 131.638 76.1339 131.645C76.3451 131.645 76.5771 131.513 76.8316 131.246C77.0862 130.982 77.288 130.711 77.4369 130.439L77.6613 130.04L77.9065 130.418C77.8857 130.473 77.8537 130.545 77.8103 130.632C77.7669 130.721 77.6727 130.883 77.5312 131.121C77.3898 131.36 77.2446 131.575 77.0975 131.77C76.9523 131.965 76.7675 132.157 76.5469 132.352C76.3263 132.547 76.1075 132.677 75.8907 132.745C75.538 132.861 75.2325 132.851 74.9742 132.715C74.7159 132.579 74.5329 132.348 74.4236 132.021C73.9823 132.409 73.5976 132.658 73.2733 132.766C72.8999 132.889 72.5397 132.872 72.1928 132.715C71.8458 132.558 71.5837 132.294 71.4026 131.919C71.2216 131.545 71.1801 131.133 71.2744 130.683C71.3423 130.356 71.4536 130.002 71.6101 129.62L71.612 129.628ZM73.4053 131.691C73.5335 131.677 73.6504 131.645 73.756 131.594C73.8616 131.543 73.9559 131.458 74.0408 131.339C74.1256 131.22 74.1935 131.12 74.2444 131.038C74.2953 130.957 74.3519 130.815 74.4123 130.615C74.4726 130.414 74.516 130.265 74.5386 130.171C74.5631 130.074 74.6046 129.902 74.6668 129.649C74.45 129.73 74.2727 129.73 74.1369 129.649C74.0087 129.567 74.0521 129.462 74.2689 129.331L74.3406 129.29C74.5179 129.195 74.6536 129.031 74.7479 128.8C74.829 128.588 74.8479 128.418 74.8045 128.289C74.7611 128.159 74.68 128.085 74.565 128.064C74.45 128.051 74.3067 128.106 74.1369 128.227C73.9672 128.35 73.7937 128.541 73.6165 128.8C73.1488 129.48 72.8528 130.172 72.7302 130.874C72.683 131.154 72.7094 131.369 72.8113 131.522C72.9131 131.675 73.1092 131.732 73.4015 131.691H73.4053Z" fill="#71AD41"></path>
<path d="M49.257 135.136C48.7856 135.3 48.3198 135.529 47.8559 135.826C47.3921 136.123 47.0979 136.397 46.9715 136.648C46.8905 136.839 46.8546 137.009 46.8622 137.159C46.8716 137.308 46.8999 137.431 46.9489 137.524L47.0262 137.66C47.0526 137.694 47.0394 137.709 46.9847 137.705C46.8678 137.705 46.7321 137.648 46.5812 137.537C46.3361 137.352 46.2078 137.11 46.1927 136.811C46.1814 136.514 46.2833 136.215 46.5001 135.917C46.717 135.618 47.0074 135.349 47.3713 135.115C47.7353 134.881 48.1388 134.692 48.582 134.546C49.3193 134.31 49.8322 134.247 50.1207 134.359C50.2357 134.402 50.3357 134.491 50.4243 134.627C50.511 134.763 50.5695 134.89 50.5978 135.005C50.6261 135.123 50.6261 135.183 50.5959 135.189C50.5846 135.189 50.5638 135.177 50.5337 135.157C50.5054 135.136 50.462 135.109 50.4073 135.075C50.3508 135.041 50.2904 135.017 50.2244 134.998C50.1754 134.983 50.1037 134.975 50.0076 134.975C50.0226 134.975 50.0321 134.983 50.0377 134.996C50.0434 135.009 50.0396 135.021 50.0321 135.03C50.0264 135.036 50.0057 135.051 49.9736 135.073C49.9416 135.096 49.9227 135.115 49.9189 135.13C49.819 135.331 49.7379 135.726 49.6776 136.316C49.6153 136.905 49.5852 137.387 49.5852 137.764C49.8718 137.457 50.1961 137.125 50.5582 136.765C50.5997 136.724 50.6638 136.656 50.7486 136.565C50.8335 136.474 50.9127 136.389 50.9881 136.308C51.0636 136.229 51.1541 136.138 51.2597 136.036C51.3653 135.934 51.4633 135.845 51.5557 135.765C51.6481 135.686 51.7481 135.612 51.8593 135.54C51.9687 135.469 52.0705 135.416 52.1648 135.382C52.2572 135.348 52.3534 135.331 52.4496 135.332C52.5457 135.334 52.6344 135.361 52.7117 135.412C52.8116 135.478 52.8701 135.573 52.8908 135.692C52.9097 135.811 52.904 135.915 52.8701 136C52.8361 136.085 52.8041 136.128 52.7701 136.125C52.7664 136.125 52.7343 136.102 52.674 136.055C52.6136 136.007 52.542 135.987 52.4609 135.994C52.476 135.998 52.4854 136.005 52.4854 136.021C52.4854 136.036 52.4816 136.047 52.4703 136.053L52.3383 136.125C52.2798 136.195 52.2063 136.325 52.1158 136.52C51.9744 136.822 51.8122 137.268 51.6293 137.858C51.4464 138.448 51.3012 139.04 51.1899 139.633C51.0786 140.227 51.0918 140.626 51.2276 140.832C51.2484 140.858 51.2389 140.875 51.2012 140.879C51.1616 140.883 51.1371 140.883 51.1239 140.877C50.9184 140.828 50.775 140.681 50.6921 140.433C50.6091 140.185 50.5808 139.896 50.6053 139.569C50.6317 139.24 50.6845 138.889 50.7637 138.512C50.8429 138.136 50.9316 137.801 51.024 137.51C51.1182 137.219 51.205 136.977 51.2861 136.786C50.9806 137.047 50.677 137.342 50.3734 137.677C50.0698 138.011 49.8831 138.24 49.8152 138.371C49.7662 138.459 49.7398 138.55 49.7341 138.647C49.7285 138.743 49.7549 138.832 49.8152 138.915C49.8793 138.985 49.9057 139.028 49.8982 139.047C49.8906 139.066 49.8322 139.078 49.7228 139.083C49.653 139.087 49.5833 139.072 49.5154 139.04C49.4456 139.008 49.3721 138.947 49.2966 138.86C49.2193 138.771 49.159 138.631 49.1137 138.437C49.0685 138.242 49.0458 138.004 49.0458 137.722C49.0458 137.295 49.0685 136.903 49.1137 136.546C48.8573 137.07 48.6423 137.652 48.4707 138.291C48.2991 138.93 48.284 139.348 48.4254 139.541C48.4462 139.569 48.4368 139.584 48.399 139.588C48.3594 139.592 48.333 139.592 48.3217 139.586C48.1105 139.565 47.9653 139.427 47.8842 139.176C47.805 138.923 47.7918 138.613 47.8484 138.244C47.905 137.875 47.9955 137.491 48.1237 137.093C48.2519 136.696 48.4179 136.316 48.6234 135.958C48.829 135.599 49.0383 135.327 49.2533 135.14L49.257 135.136Z" fill="#71AD41"></path>
<path d="M52.2764 137.125C52.4178 136.789 52.629 136.524 52.9081 136.326C53.1872 136.129 53.4757 136.071 53.7755 136.148C53.7906 136.152 53.8264 136.169 53.8811 136.197C53.9377 136.227 53.9716 136.25 53.9829 136.265C54.0037 136.237 54.0508 136.21 54.1225 136.18C54.196 136.152 54.2828 136.14 54.3865 136.148C54.4902 136.156 54.5769 136.195 54.6467 136.269C54.6561 136.28 54.6618 136.292 54.6637 136.299C54.6675 136.307 54.6656 136.314 54.6618 136.32C54.658 136.326 54.6505 136.335 54.6392 136.345C54.6279 136.354 54.6165 136.367 54.6033 136.382C54.5901 136.398 54.5732 136.42 54.5562 136.451C54.5392 136.481 54.5204 136.517 54.5015 136.555C54.4299 136.727 54.3714 136.872 54.3299 136.989C54.2337 137.273 54.1791 137.517 54.1696 137.715C54.1583 137.916 54.1979 138.016 54.2847 138.02C54.3789 138.02 54.4808 137.961 54.5939 137.842C54.7071 137.723 54.7976 137.604 54.8636 137.483L54.9635 137.305L55.0729 137.473C55.0635 137.498 55.0503 137.53 55.0295 137.568C55.0107 137.608 54.9692 137.679 54.9051 137.785C54.8409 137.891 54.7768 137.988 54.7127 138.073C54.6486 138.158 54.5656 138.245 54.4676 138.332C54.3695 138.419 54.2715 138.477 54.1753 138.507C54.0188 138.558 53.883 138.555 53.768 138.494C53.6529 138.434 53.5719 138.332 53.5228 138.186C53.3267 138.358 53.157 138.47 53.0118 138.517C52.8459 138.572 52.6856 138.564 52.5309 138.494C52.3763 138.424 52.2594 138.307 52.1802 138.141C52.0991 137.974 52.0803 137.791 52.1236 137.591C52.1538 137.445 52.2047 137.288 52.2726 137.118L52.2764 137.125ZM53.074 138.042C53.1325 138.037 53.1834 138.022 53.2305 137.999C53.2777 137.976 53.3192 137.938 53.3569 137.885C53.3946 137.833 53.4248 137.787 53.4474 137.751C53.47 137.715 53.4945 137.653 53.5228 137.562C53.5511 137.473 53.5681 137.407 53.5794 137.366C53.5907 137.322 53.6096 137.246 53.636 137.135C53.5398 137.171 53.4606 137.171 53.4003 137.135C53.3418 137.099 53.3625 137.052 53.4587 136.993L53.4908 136.974C53.57 136.933 53.6303 136.859 53.6718 136.757C53.7076 136.662 53.7171 136.587 53.6963 136.53C53.6756 136.473 53.6416 136.439 53.5888 136.43C53.5379 136.424 53.4738 136.449 53.3984 136.503C53.3229 136.558 53.2456 136.643 53.1683 136.757C52.9609 137.059 52.8289 137.367 52.7742 137.678C52.7535 137.802 52.7648 137.897 52.81 137.965C52.8553 138.033 52.9439 138.057 53.0721 138.04L53.074 138.042Z" fill="#71AD41"></path>
<path d="M55.9024 135.905C56.0815 135.89 56.2248 135.926 56.3361 136.014C56.4474 136.103 56.4492 136.228 56.3399 136.391C56.289 136.466 56.2211 136.51 56.1362 136.523C56.0815 136.529 56.0551 136.513 56.0589 136.474C56.0627 136.453 56.0721 136.427 56.091 136.396C56.1419 136.323 56.1324 136.273 56.0646 136.247C55.9986 136.226 55.9382 136.239 55.8835 136.287C55.827 136.338 55.8194 136.409 55.8647 136.5C55.8703 136.513 55.9288 136.604 56.0363 136.772C56.5228 136.693 56.8622 136.655 57.0546 136.659C57.1262 136.659 57.1884 136.685 57.2375 136.74C57.2865 136.795 57.2903 136.842 57.2431 136.88C56.8848 136.905 56.5379 136.962 56.206 137.052C56.2607 137.141 56.2946 137.196 56.3078 137.219C56.321 137.241 56.3455 137.287 56.3795 137.355C56.4134 137.423 56.4342 137.476 56.4379 137.515C56.4417 137.555 56.4455 137.608 56.4492 137.672C56.4511 137.739 56.4455 137.807 56.4304 137.878C56.387 138.094 56.2644 138.268 56.0608 138.402C55.8571 138.536 55.6233 138.576 55.3574 138.517C55.116 138.466 54.9312 138.368 54.8049 138.224C54.6785 138.081 54.6182 137.928 54.6258 137.767C54.6333 137.606 54.7049 137.445 54.8407 137.289C54.9765 137.132 55.1632 137.013 55.4027 136.929C55.3235 136.767 55.2839 136.614 55.2801 136.472C55.2782 136.33 55.3272 136.205 55.4272 136.098C55.529 135.99 55.6836 135.926 55.8948 135.905H55.9024ZM55.5856 137.221C55.4498 137.266 55.3499 137.343 55.2876 137.455C55.2235 137.566 55.2047 137.674 55.2292 137.78C55.265 137.935 55.3442 138.02 55.4649 138.039C55.5799 138.056 55.6723 138.016 55.7402 137.916C55.8402 137.765 55.8213 137.578 55.6817 137.353C55.6535 137.311 55.6233 137.266 55.5856 137.221Z" fill="#71AD41"></path>
<path d="M57.6993 135.905C57.8784 135.89 58.0217 135.926 58.133 136.014C58.2442 136.103 58.2461 136.228 58.1367 136.391C58.0858 136.466 58.0179 136.51 57.9331 136.523C57.8784 136.529 57.852 136.513 57.8558 136.474C57.8595 136.453 57.869 136.427 57.8878 136.396C57.9387 136.323 57.9293 136.273 57.8614 136.247C57.7954 136.226 57.7351 136.239 57.6804 136.287C57.6238 136.338 57.6163 136.409 57.6615 136.5C57.6672 136.513 57.7257 136.604 57.8331 136.772C58.3197 136.693 58.6591 136.655 58.8514 136.659C58.9231 136.659 58.9853 136.685 59.0343 136.74C59.0834 136.795 59.0871 136.842 59.04 136.88C58.6817 136.905 58.3347 136.962 58.0029 137.052C58.0575 137.141 58.0915 137.196 58.1047 137.219C58.1179 137.241 58.1424 137.287 58.1763 137.355C58.2103 137.423 58.231 137.476 58.2348 137.515C58.2386 137.555 58.2423 137.608 58.2461 137.672C58.248 137.739 58.2423 137.807 58.2273 137.878C58.1839 138.094 58.0613 138.268 57.8577 138.402C57.654 138.536 57.4202 138.576 57.1543 138.517C56.9129 138.466 56.7281 138.368 56.6018 138.224C56.4754 138.081 56.4151 137.928 56.4226 137.767C56.4302 137.604 56.5018 137.445 56.6376 137.289C56.7734 137.132 56.9601 137.013 57.1995 136.929C57.1203 136.767 57.0807 136.614 57.077 136.472C57.0751 136.33 57.1241 136.205 57.2241 136.098C57.3259 135.99 57.4805 135.926 57.6917 135.905H57.6993ZM57.3825 137.221C57.2467 137.266 57.1467 137.343 57.0845 137.455C57.0204 137.566 57.0015 137.674 57.0261 137.78C57.0619 137.935 57.1411 138.02 57.2618 138.039C57.3768 138.056 57.4692 138.016 57.5371 137.916C57.637 137.765 57.6182 137.578 57.4786 137.353C57.4503 137.311 57.4202 137.266 57.3825 137.221Z" fill="#71AD41"></path>
<path d="M58.4196 137.598C58.4648 137.375 58.5422 137.167 58.6534 136.974C58.7628 136.781 58.8853 136.626 59.0173 136.507C59.1512 136.388 59.2851 136.294 59.4228 136.226C59.5604 136.157 59.6849 136.123 59.7962 136.123C60.013 136.099 60.2016 136.174 60.3619 136.35C60.4826 136.49 60.5467 136.668 60.5523 136.885C60.6617 136.836 60.7824 136.776 60.9182 136.702C61.0539 136.628 61.1614 136.566 61.2387 136.519L61.3613 136.447L61.4348 136.632C61.118 136.904 60.8031 137.122 60.4939 137.28C60.3996 137.604 60.2242 137.895 59.964 138.152C59.7038 138.409 59.4379 138.543 59.1626 138.557V138.551C58.9306 138.575 58.7345 138.492 58.5761 138.299C58.4177 138.107 58.3649 137.874 58.4196 137.598ZM59.3021 137.021C59.1776 137.26 59.1003 137.479 59.0664 137.679C59.0456 137.804 59.057 137.901 59.1041 137.972C59.1512 138.044 59.238 138.067 59.3643 138.042C59.6415 137.948 59.8565 137.751 60.0074 137.452H60.0036C59.849 137.469 59.7094 137.439 59.5812 137.36C59.453 137.279 59.3606 137.167 59.3021 137.021ZM60.1488 136.999C60.1676 136.874 60.1601 136.759 60.1299 136.649C60.1186 136.604 60.096 136.56 60.062 136.52C60.0281 136.481 59.9904 136.45 59.947 136.432C59.9036 136.413 59.8622 136.43 59.8226 136.477C59.7622 136.551 59.7679 136.653 59.8414 136.787C59.9131 136.921 60.0168 136.991 60.1488 136.999Z" fill="#71AD41"></path>
<path d="M62.4798 135.4C62.5401 135.413 62.5401 135.466 62.4798 135.559C62.4703 135.574 62.4307 135.631 62.3572 135.731C62.3063 135.803 62.2535 135.888 62.1988 135.984C62.5345 135.954 62.7249 135.948 62.7702 135.971C62.8305 136.005 62.8513 136.039 62.8343 136.075C62.8154 136.111 62.7607 136.141 62.6702 136.166C62.6495 136.171 62.6061 136.185 62.542 136.202C62.476 136.22 62.393 136.243 62.2893 136.27C62.1856 136.296 62.0913 136.323 62.0064 136.347C61.8744 136.608 61.7519 136.873 61.6425 137.143C61.5312 137.413 61.469 137.599 61.4539 137.699C61.4388 137.805 61.4426 137.886 61.4671 137.945C61.4916 138.003 61.5331 138.028 61.5897 138.022C61.6802 138.016 61.7952 137.95 61.9329 137.822C62.0706 137.693 62.1856 137.568 62.2761 137.445L62.4157 137.26L62.493 137.491C62.4779 137.515 62.459 137.548 62.4345 137.587C62.41 137.627 62.361 137.699 62.2855 137.803C62.2101 137.907 62.1347 138.003 62.0574 138.088C61.9801 138.175 61.8895 138.258 61.7839 138.342C61.6783 138.425 61.5765 138.481 61.4803 138.512C61.3351 138.557 61.2088 138.553 61.0994 138.502C60.99 138.451 60.9071 138.364 60.8505 138.243C60.7751 138.077 60.7751 137.839 60.8505 137.527C60.9259 137.215 61.0428 136.886 61.1994 136.542C61.1032 136.561 61.0391 136.568 61.0089 136.565C60.9486 136.565 60.8939 136.53 60.843 136.462C60.792 136.394 60.7713 136.324 60.7788 136.251C60.7864 136.179 60.8316 136.133 60.9127 136.118C61.0674 136.099 61.2427 136.079 61.4426 136.054C61.518 135.927 61.5878 135.822 61.65 135.736C61.8707 135.449 62.146 135.336 62.4779 135.396L62.4798 135.4Z" fill="#71AD41"></path>
<path d="M65.246 136.904C65.1366 137.211 64.9556 137.496 64.701 137.765C64.4464 138.033 64.1485 138.241 63.8072 138.39C63.4659 138.54 63.1359 138.589 62.8153 138.538C62.5947 138.502 62.4268 138.398 62.3137 138.23C62.1987 138.06 62.1666 137.85 62.2175 137.598C62.2571 137.402 62.325 137.209 62.4231 137.018C62.5211 136.827 62.6399 136.657 62.7814 136.506C62.9209 136.354 63.0868 136.243 63.2773 136.173C63.4678 136.101 63.6639 136.093 63.8656 136.148C64.0863 136.205 64.1768 136.341 64.1372 136.553C64.1014 136.753 63.9731 136.946 63.7525 137.133C63.481 137.366 63.2038 137.474 62.919 137.455C62.8983 137.525 62.8794 137.6 62.8643 137.681C62.8342 137.872 62.8643 138.009 62.9605 138.09C63.0567 138.171 63.1792 138.192 63.3358 138.148C63.5715 138.082 63.8223 137.933 64.0882 137.699C64.354 137.466 64.5332 137.216 64.6275 136.95C64.4879 136.908 64.3955 136.833 64.3465 136.725C64.2975 136.617 64.2994 136.513 64.3503 136.415C64.4106 136.275 64.5068 136.184 64.635 136.143C64.7651 136.101 64.8896 136.114 65.0084 136.188C65.1272 136.26 65.2045 136.377 65.2366 136.538C65.2667 136.523 65.2837 136.511 65.2912 136.506H65.295C65.4968 136.394 65.6759 136.303 65.8287 136.233C65.9645 136.167 66.0757 136.131 66.1643 136.124C66.2511 136.118 66.3114 136.137 66.3454 136.18C66.3793 136.224 66.3944 136.281 66.3925 136.349C66.3925 136.417 66.3737 136.494 66.3397 136.583C66.3303 136.604 66.2963 136.672 66.236 136.783C65.9343 137.353 65.7929 137.721 65.8098 137.891C65.8193 137.992 65.8777 138.037 65.9871 138.027C66.0814 138.022 66.1832 137.959 66.2963 137.838C66.4095 137.719 66.5 137.602 66.566 137.487L66.6659 137.315L66.7753 137.483C66.7659 137.508 66.7527 137.54 66.7319 137.578C66.7112 137.617 66.6697 137.689 66.6075 137.795C66.5434 137.901 66.4793 137.997 66.4151 138.082C66.3491 138.169 66.2681 138.254 66.17 138.341C66.0719 138.428 65.9739 138.487 65.8777 138.517C65.6307 138.598 65.4402 138.545 65.3101 138.358C65.1781 138.171 65.1442 137.918 65.2083 137.6C65.229 137.504 65.2705 137.366 65.329 137.19C65.3874 137.012 65.4383 136.88 65.4817 136.793C65.461 136.802 65.4233 136.819 65.3686 136.842C65.3139 136.867 65.2724 136.887 65.246 136.906V136.904ZM63.0133 137.203C63.1491 137.179 63.2848 137.131 63.4225 137.06C63.5602 136.988 63.6582 136.884 63.7186 136.749C63.728 136.725 63.7355 136.698 63.7431 136.668C63.7506 136.638 63.7563 136.604 63.7619 136.568C63.7657 136.532 63.7619 136.5 63.7487 136.475C63.7355 136.451 63.7129 136.436 63.6827 136.432C63.5922 136.426 63.4904 136.483 63.3791 136.604C63.2434 136.749 63.1208 136.948 63.0133 137.203ZM64.6935 136.681C64.7274 136.632 64.7387 136.555 64.7293 136.451C64.7142 136.33 64.6652 136.292 64.5841 136.337C64.5332 136.368 64.52 136.428 64.5483 136.517C64.5747 136.606 64.6237 136.661 64.6935 136.683V136.681Z" fill="#71AD41"></path>
<path d="M66.5585 137.125C66.6999 136.789 66.9111 136.524 67.1902 136.326C67.4693 136.129 67.7578 136.071 68.0576 136.148C68.0727 136.152 68.1085 136.169 68.1632 136.197C68.2198 136.227 68.2537 136.25 68.265 136.265C68.2858 136.237 68.3329 136.21 68.4046 136.18C68.4781 136.152 68.5649 136.14 68.6686 136.148C68.7723 136.156 68.859 136.195 68.9288 136.269C68.9382 136.28 68.9439 136.292 68.9458 136.299C68.9496 136.307 68.9477 136.314 68.9439 136.32C68.9401 136.326 68.9326 136.335 68.9213 136.345C68.91 136.354 68.8986 136.367 68.8854 136.382C68.8722 136.398 68.8553 136.42 68.8383 136.451C68.8213 136.481 68.8025 136.517 68.7836 136.555C68.712 136.727 68.6535 136.872 68.612 136.989C68.5158 137.273 68.4612 137.517 68.4517 137.715C68.4423 137.914 68.48 138.016 68.5668 138.02C68.661 138.02 68.7629 137.961 68.876 137.842C68.9892 137.723 69.0797 137.604 69.1457 137.483L69.2456 137.305L69.355 137.473C69.3456 137.498 69.3324 137.53 69.3116 137.568C69.2928 137.608 69.2513 137.679 69.1872 137.785C69.123 137.891 69.0589 137.988 68.9948 138.073C68.9307 138.158 68.8477 138.245 68.7497 138.332C68.6516 138.419 68.5536 138.477 68.4574 138.507C68.3009 138.558 68.1651 138.555 68.0501 138.494C67.935 138.434 67.854 138.332 67.8049 138.186C67.6088 138.358 67.4391 138.47 67.2939 138.517C67.128 138.572 66.9677 138.564 66.813 138.494C66.6584 138.424 66.5415 138.307 66.4623 138.141C66.3812 137.974 66.3624 137.791 66.4057 137.591C66.4359 137.445 66.4868 137.288 66.5547 137.118L66.5585 137.125ZM67.3561 138.042C67.4146 138.037 67.4655 138.022 67.5126 137.999C67.5598 137.976 67.6013 137.938 67.639 137.885C67.6767 137.833 67.7069 137.787 67.7295 137.751C67.7521 137.715 67.7766 137.653 67.8049 137.562C67.8332 137.473 67.8502 137.407 67.8615 137.366C67.8728 137.322 67.8917 137.246 67.9181 137.135C67.8219 137.171 67.7427 137.171 67.6824 137.135C67.6239 137.099 67.6446 137.052 67.7408 136.993L67.7729 136.974C67.8521 136.933 67.9124 136.859 67.9539 136.757C67.9897 136.662 67.9992 136.587 67.9784 136.53C67.9577 136.473 67.9237 136.439 67.8709 136.43C67.82 136.424 67.7559 136.449 67.6805 136.503C67.605 136.558 67.5277 136.643 67.4504 136.757C67.243 137.059 67.111 137.367 67.0563 137.678C67.0356 137.802 67.0469 137.897 67.0921 137.965C67.1374 138.033 67.226 138.057 67.3542 138.04L67.3561 138.042Z" fill="#71AD41"></path>
<path d="M68.6423 138.664C68.6913 138.426 68.763 138.167 68.8592 137.887C68.9553 137.609 69.0383 137.39 69.1062 137.229C69.1741 137.069 69.2816 136.825 69.4305 136.494C69.4758 136.403 69.4796 136.339 69.4437 136.303C69.3985 136.262 69.4381 136.22 69.5663 136.18C69.7473 136.122 69.9246 136.105 70.1 136.125C70.2018 136.135 70.2546 136.159 70.2546 136.203C70.2546 136.254 70.2339 136.322 70.1905 136.407C70.5639 136.125 70.9033 136.048 71.205 136.176C71.3389 136.235 71.4238 136.335 71.4652 136.481C71.5067 136.626 71.4992 136.785 71.4464 136.959C71.3936 137.133 71.3182 137.305 71.2201 137.475C71.122 137.645 70.9976 137.793 70.8467 137.919C70.6959 138.046 70.545 138.127 70.3942 138.16C70.3791 138.163 70.3847 138.169 70.413 138.178C70.5186 138.213 70.6431 138.184 70.7883 138.097L70.8015 138.088C70.9618 137.988 71.1409 137.859 71.3427 137.7C71.5426 137.541 71.6614 137.434 71.6972 137.375L71.8066 137.543C71.3238 137.991 70.9787 138.282 70.7694 138.419C70.6827 138.477 70.5884 138.515 70.4903 138.538C70.3923 138.558 70.2999 138.564 70.215 138.551C70.1283 138.54 70.0472 138.515 69.968 138.475C69.8888 138.438 69.8266 138.386 69.7813 138.324C69.736 138.262 69.704 138.19 69.687 138.11C69.67 138.031 69.6776 137.946 69.7134 137.851C69.7247 137.812 69.753 137.789 69.7983 137.783C69.8416 137.778 69.8907 137.778 69.9453 137.785C70 137.793 70.0736 137.776 70.1698 137.73C70.264 137.687 70.3602 137.611 70.4564 137.505C70.6129 137.339 70.7128 137.129 70.7543 136.874C70.7977 136.643 70.7675 136.505 70.6638 136.456C70.5375 136.405 70.3451 136.509 70.0887 136.77C70.0151 136.842 69.9623 136.893 69.9303 136.919C69.7907 137.218 69.5795 137.768 69.2967 138.566C69.1175 139.075 69.076 139.405 69.1703 139.56C69.1741 139.57 69.1741 139.577 69.1741 139.583C69.1741 139.589 69.1703 139.594 69.1647 139.6C69.159 139.604 69.1515 139.608 69.1439 139.61C69.1364 139.61 69.1269 139.612 69.1175 139.612H69.0911C69.0911 139.612 69.0741 139.612 69.0666 139.612H69.0572C68.8818 139.591 68.7555 139.491 68.68 139.313C68.6027 139.133 68.5895 138.918 68.6404 138.664H68.6423Z" fill="#71AD41"></path>
<path d="M72.9434 136.149C73.0075 136.158 73.0094 136.207 72.949 136.298C72.9358 136.319 72.8943 136.379 72.8227 136.48C72.5153 136.913 72.3267 137.302 72.2607 137.65C72.2174 137.882 72.2494 138.007 72.355 138.022H72.3871C72.4795 138.017 72.5832 137.954 72.6963 137.833C72.8095 137.714 72.9 137.597 72.966 137.482L73.0659 137.31L73.1753 137.478C73.1659 137.502 73.1527 137.535 73.1319 137.572C73.1112 137.612 73.0697 137.684 73.0075 137.79C72.9434 137.896 72.8793 137.992 72.8151 138.077C72.7491 138.164 72.6681 138.249 72.57 138.336C72.4719 138.423 72.3739 138.482 72.2777 138.512C72.0269 138.593 71.8365 138.54 71.7082 138.353C71.5781 138.166 71.5442 137.913 71.6083 137.595C71.6573 137.372 71.7422 137.138 71.8666 136.892C72.0175 136.601 72.174 136.393 72.3362 136.268C72.4983 136.143 72.7001 136.102 72.9453 136.147L72.9434 136.149ZM72.7152 135.663C72.7963 135.629 72.8793 135.618 72.966 135.627C73.0546 135.636 73.1187 135.665 73.1602 135.71C73.2036 135.757 73.2112 135.81 73.1829 135.867C73.1546 135.926 73.1018 135.971 73.0226 136.003C72.9415 136.037 72.8585 136.049 72.7718 136.039C72.685 136.03 72.619 136.001 72.5775 135.956C72.5361 135.909 72.5285 135.856 72.5549 135.799C72.5832 135.742 72.636 135.697 72.7152 135.663Z" fill="#71AD41"></path>
<path d="M72.9512 137.125C73.0926 136.789 73.3038 136.524 73.5829 136.326C73.862 136.129 74.1505 136.071 74.4503 136.148C74.4654 136.152 74.5012 136.169 74.5559 136.197C74.6125 136.227 74.6464 136.25 74.6577 136.265C74.6785 136.237 74.7256 136.21 74.7973 136.18C74.8708 136.152 74.9576 136.14 75.0613 136.148C75.165 136.156 75.2517 136.195 75.3215 136.269C75.3309 136.28 75.3366 136.292 75.3385 136.299C75.3423 136.307 75.3404 136.314 75.3366 136.32C75.3328 136.326 75.3253 136.335 75.314 136.345C75.3027 136.354 75.2913 136.367 75.2781 136.382C75.2649 136.398 75.248 136.42 75.231 136.451C75.214 136.481 75.1952 136.517 75.1763 136.555C75.1047 136.727 75.0462 136.872 75.0047 136.989C74.9085 137.273 74.8539 137.517 74.8444 137.715C74.8331 137.916 74.8727 138.016 74.9595 138.02C75.0537 138.02 75.1556 137.961 75.2687 137.842C75.3819 137.723 75.4724 137.604 75.5384 137.483L75.6383 137.305L75.7477 137.473C75.7383 137.498 75.7251 137.53 75.7043 137.568C75.6855 137.608 75.644 137.679 75.5799 137.785C75.5157 137.891 75.4516 137.988 75.3875 138.073C75.3234 138.158 75.2404 138.245 75.1424 138.332C75.0443 138.419 74.9463 138.477 74.8501 138.507C74.6936 138.558 74.5578 138.555 74.4428 138.494C74.3277 138.434 74.2467 138.332 74.1976 138.186C74.0015 138.358 73.8318 138.47 73.6866 138.517C73.5207 138.572 73.3604 138.564 73.2057 138.494C73.0511 138.424 72.9342 138.307 72.855 138.141C72.7739 137.974 72.7551 137.791 72.7984 137.591C72.8286 137.445 72.8795 137.288 72.9474 137.118L72.9512 137.125ZM73.7488 138.042C73.8073 138.037 73.8582 138.022 73.9053 137.999C73.9525 137.976 73.994 137.938 74.0317 137.885C74.0694 137.833 74.0996 137.787 74.1222 137.751C74.1448 137.715 74.1693 137.653 74.1976 137.562C74.2259 137.473 74.2429 137.407 74.2542 137.366C74.2655 137.322 74.2844 137.246 74.3108 137.135C74.2146 137.171 74.1354 137.171 74.0751 137.135C74.0166 137.099 74.0373 137.052 74.1335 136.993L74.1656 136.974C74.2448 136.933 74.3051 136.859 74.3466 136.757C74.3824 136.662 74.3919 136.587 74.3711 136.53C74.3504 136.473 74.3164 136.439 74.2636 136.43C74.2127 136.424 74.1486 136.449 74.0732 136.503C73.9977 136.558 73.9204 136.643 73.8431 136.757C73.6357 137.059 73.5037 137.367 73.449 137.678C73.4283 137.802 73.4396 137.897 73.4848 137.965C73.5301 138.033 73.6187 138.057 73.7469 138.04L73.7488 138.042Z" fill="#71AD41"></path>
<path d="M20.3583 86.1746C20.2339 86.2388 20.1038 86.3258 20 86.426C19.7568 86.6585 19.5267 86.9024 19.2853 87.1368C18.8026 87.6038 18.3067 88.0575 17.8164 88.5188C16.8433 89.4338 15.8854 90.3791 15.1104 91.4737C13.7055 93.455 12.9738 96.1868 14.1449 98.3155C14.7879 99.4839 15.9288 100.32 17.1639 100.82C18.3991 101.321 19.7323 101.52 21.056 101.667C26.7943 102.31 32.7079 102.168 38.4311 101.424C44.1523 100.681 49.8208 99.6011 55.4968 98.5764C61.1615 97.5556 66.8451 96.5838 72.5814 96.0583C75.9644 95.7482 79.3323 95.631 82.7266 95.6007C81.3066 95.5024 79.8848 95.4079 78.4649 95.3247C75.8437 95.1735 73.1943 95.3361 70.5694 95.4495C64.7331 95.7028 58.9024 96.1566 53.1001 96.8372C47.2355 97.5253 41.3539 98.1586 35.4441 98.2362C32.821 98.2702 30.1961 98.1946 27.5844 97.9658C25.7986 97.8089 24.0034 97.5763 22.31 96.9884C21.3144 96.6424 20.315 96.1395 19.7172 95.2699C19.0119 94.2433 18.9874 92.9011 19.1062 91.6609C19.1967 90.7194 19.3532 89.7836 19.5757 88.8629C19.687 88.4035 19.8134 87.9479 19.9567 87.496C20.0585 87.1746 20.4564 86.4525 20.3602 86.1746H20.3583Z" fill="#9DDC63"></path>
<path d="M25.3065 89.3858C25.3065 89.3858 22.097 87.1871 21.0165 83.8106C20.0755 80.8689 19.8398 77.5302 20.9052 74.5602C22.7778 69.3461 28.3123 65.6124 33.8677 66.7807C34.7822 66.9735 35.6685 67.2855 36.5114 67.6919C38.0558 68.4349 39.4475 69.5106 40.5374 70.8359C41.7462 72.3067 42.1686 73.9061 42.8795 75.6208C43.0983 76.1464 43.4358 76.653 43.9449 76.9045C44.3711 77.1143 44.8633 77.1238 45.3385 77.1143C45.8721 77.1049 46.4115 77.0765 46.9225 76.9272C47.4354 76.7778 47.9068 76.5131 48.3688 76.2447C49.6832 75.4885 50.9824 74.7039 52.2647 73.8948C53.2302 73.2841 54.1259 72.4939 55.131 71.9645C56.1814 71.4106 57.4769 71.1157 58.6272 70.8491C61.0578 70.2876 63.5677 70.108 66.0588 70.178C69.1061 70.2649 72.1289 70.7205 75.1215 71.2745C78.9156 71.9778 82.621 73.0762 86.2812 74.2842C89.7981 75.445 93.4526 76.5056 96.8733 77.8913C100.747 79.4605 105.089 79.8537 109.179 78.9878C111.357 78.5266 113.447 77.7231 115.549 76.9858C119.179 75.7116 122.904 74.6188 126.732 74.1462C130.507 73.6792 134.331 73.9193 138.076 74.5186C141.814 75.1179 145.391 76.2995 149.083 77.0519C147.931 76.9177 146.764 76.861 145.608 76.7721C137.888 76.188 129.943 75.7532 122.278 77.1087C122.2 77.1219 122.121 77.137 122.044 77.1503C117.413 77.9934 112.936 79.5172 108.406 80.8009C104.935 81.7858 100.794 81.6308 97.3579 80.5778C93.6053 79.4265 89.849 78.2902 86.0568 77.2807C78.9288 75.3845 71.633 73.9326 64.2372 73.7908C61.929 73.7454 59.587 73.8343 57.3731 74.4884C54.9293 75.2106 52.7399 76.5907 50.4167 77.6437C49.0024 78.2865 47.5014 78.8064 45.9495 78.9652C45.165 79.0465 44.3277 79.0578 43.5546 78.882C42.8833 78.7289 42.6193 78.2108 42.2742 77.6361C41.2295 75.8855 40.0622 74.2105 38.7837 72.6243C38.2501 71.9626 37.6919 71.3123 37.03 70.7792C35.7647 69.7621 34.1543 69.2232 32.5363 69.123C29.489 68.9359 26.8698 70.1137 24.7596 72.2632C22.9475 74.1084 21.7651 76.5112 21.5011 79.0956C21.0938 83.0922 22.7853 86.4479 25.3046 89.3858H25.3065Z" fill="#9DDC63"></path>
<path d="M51.7124 81.3184C51.505 81.0613 50.7771 81.6776 50.5659 81.861C49.5721 82.7269 49.129 84.1334 49.2893 85.4416C49.4514 86.7518 50.1699 87.9542 51.141 88.8446C52.0254 89.6537 53.2606 90.41 54.441 90.6595C54.1582 90.599 53.5095 89.8144 53.2794 89.6197C52.7684 89.1887 52.2725 88.7349 51.8425 88.2207C51.1957 87.4475 50.6941 86.5174 50.5904 85.5135C50.5112 84.7535 50.6602 83.984 50.9016 83.2581C50.9977 82.9726 51.1071 82.6909 51.2316 82.4149C51.3126 82.2372 51.7916 81.5793 51.7577 81.4186C51.7482 81.3751 51.7332 81.3392 51.7124 81.3146V81.3184Z" fill="#9DDC63"></path>
<path d="M65.8685 54.008C65.7893 54.3861 65.6215 54.7321 65.5178 55.1007C65.3669 55.6452 65.1482 56.1708 64.871 56.6623C64.3317 57.6189 63.5698 58.4508 62.6515 59.0519C61.8557 59.5718 60.9638 59.9197 60.0775 60.2638C58.5557 60.8555 57.0339 61.4472 55.4895 61.9709C54.3807 62.3471 53.2531 62.6893 52.2216 63.2414C49.7796 64.5439 48.0805 66.8768 46.5022 69.153C45.6762 70.346 44.8371 71.5937 44.5825 73.0249C44.5656 73.125 44.5542 73.2404 44.624 73.3141C44.6806 73.3727 44.773 73.3821 44.856 73.3802C45.6876 73.3576 46.3268 72.6694 46.8661 72.0361C47.9146 70.7997 48.9612 69.5652 50.0096 68.3288C50.5716 67.6652 51.1392 66.996 51.8218 66.4553C53.4379 65.1754 55.6272 64.7179 57.6581 65.0582C57.7844 65.079 57.9146 65.1054 58.0164 65.1848C58.2012 65.3304 58.2219 65.6177 58.1182 65.8295C58.0145 66.0412 57.8184 66.1887 57.6166 66.3097C56.093 67.2304 54.0865 67.03 52.578 67.9752C52.3347 68.1265 52.082 68.3911 52.182 68.6615C52.2631 68.8827 52.5327 68.9564 52.7665 68.9867C54.0375 69.1549 55.3292 68.947 56.587 68.6917C58.1163 68.3836 59.6419 68.0036 61.0599 67.3533C62.478 66.7029 63.7923 65.7671 64.7088 64.5023C65.7818 63.022 66.2513 61.1712 66.3381 59.3431C66.4191 57.6151 66.2928 55.6811 65.8685 54.0061V54.008Z" fill="url('#paint0_radial_160_1295')"></path>
<path d="M51.0012 68.0408C51.2143 68.2317 51.3199 68.8764 51.3312 69.143C51.3557 69.661 51.3784 70.1846 51.2841 70.6951C51.1898 71.2055 50.9673 71.7084 50.5732 72.0449C50.5241 72.0865 50.46 72.13 50.3978 72.1111C50.3148 72.0865 50.2941 71.9787 50.2903 71.8918C50.2469 70.9295 50.2658 69.9634 50.3487 69.0031C50.3676 68.7875 50.3902 68.5663 50.4921 68.3754C50.7033 67.9746 50.8711 67.9235 51.0012 68.0408Z" fill="url('#paint1_radial_160_1295')"></path>
<path d="M49.8509 69.2975C50.0545 69.3296 49.9112 69.944 49.7962 70.4129C49.668 70.9441 49.5322 71.5018 49.3229 72.0085C48.9703 72.8611 48.446 73.6571 47.7219 74.2261C47.6314 74.2961 47.4919 74.3603 47.4164 74.2734C47.3919 74.245 47.3825 74.2072 47.3749 74.1694C47.1977 73.3376 47.4032 72.4603 47.7936 71.706C48.1839 70.9517 48.7477 70.3032 49.3229 69.6794C49.5925 69.3863 49.7566 69.2805 49.849 69.2956L49.8509 69.2975Z" fill="url('#paint2_radial_160_1295')"></path>
<path d="M83.53 59.7812C83.6488 60.148 83.8543 60.4731 83.9957 60.8304C84.205 61.356 84.4785 61.8532 84.8066 62.3126C85.4459 63.2049 86.2925 63.9498 87.2712 64.447C88.1179 64.878 89.0438 65.1276 89.9603 65.3734C91.5367 65.7968 93.1132 66.2203 94.7066 66.572C95.8494 66.8253 97.0072 67.0446 98.0934 67.4794C100.662 68.5079 102.604 70.6423 104.418 72.7351C105.368 73.8316 106.338 74.9811 106.743 76.3744C106.771 76.4708 106.794 76.5861 106.732 76.6655C106.681 76.7317 106.592 76.7487 106.509 76.7563C105.682 76.8243 104.969 76.2099 104.365 75.6371C103.19 74.5217 102.016 73.4081 100.841 72.2927C100.209 71.6934 99.5737 71.0903 98.8363 70.6272C97.0921 69.5307 94.865 69.3132 92.8831 69.8728C92.7606 69.9069 92.6323 69.9485 92.5418 70.0373C92.374 70.2018 92.3853 70.4891 92.5098 70.6876C92.6342 70.8862 92.8473 71.0128 93.0604 71.1111C94.6727 71.8598 96.647 71.4439 98.248 72.2209C98.5063 72.3457 98.7854 72.582 98.7157 72.8599C98.6591 73.0886 98.3989 73.1907 98.1707 73.2474C96.9242 73.5537 95.6193 73.4856 94.3408 73.3703C92.787 73.2285 91.2293 73.0168 89.7491 72.5253C88.2688 72.0337 86.8601 71.2454 85.8136 70.0884C84.5878 68.7329 83.9203 66.9444 83.6374 65.1371C83.3697 63.428 83.2867 61.4921 83.5281 59.7793L83.53 59.7812Z" fill="url('#paint3_radial_160_1295')"></path>
<path d="M99.8283 72.1157C99.6378 72.3294 99.602 72.9797 99.619 73.2463C99.651 73.7643 99.685 74.288 99.834 74.7852C99.9829 75.2824 100.258 75.7588 100.686 76.0499C100.741 76.0858 100.807 76.1218 100.867 76.0972C100.948 76.0632 100.956 75.9554 100.95 75.8684C100.89 74.9062 100.766 73.9496 100.581 73.0043C100.539 72.7925 100.492 72.5751 100.371 72.3955C100.119 72.0193 99.9452 71.9872 99.8283 72.1176V72.1157Z" fill="url('#paint4_radial_160_1295')"></path>
<path d="M101.107 73.2406C100.909 73.2954 101.119 73.889 101.281 74.3427C101.465 74.857 101.66 75.3977 101.924 75.8779C102.367 76.687 102.972 77.4205 103.755 77.9083C103.851 77.9688 103.998 78.016 104.064 77.9234C104.085 77.8932 104.09 77.8535 104.094 77.8157C104.181 76.9706 103.881 76.1198 103.412 75.4128C102.942 74.7057 102.312 74.1216 101.673 73.5638C101.373 73.303 101.198 73.216 101.109 73.2406H101.107Z" fill="url('#paint5_radial_160_1295')"></path>
<path d="M79.9056 159.9C64.5162 160.849 48.7196 156.473 35.5723 147.926C22.3987 139.424 11.7557 126.778 5.9364 112.125C4.48439 108.464 3.36428 104.683 2.47045 100.865C1.62753 97.0286 1.09953 93.1417 0.777072 89.251C0.269814 81.4507 0.841187 73.6333 2.42519 66.0428C5.58754 50.8694 12.9004 36.5884 23.5867 25.2131C26.2701 22.3867 29.1383 19.7248 32.1856 17.2672C35.2574 14.8416 38.5046 12.6335 41.8989 10.656C45.3102 8.70873 48.8817 7.05071 52.5419 5.60446C56.221 4.20547 60.0131 3.11086 63.8562 2.23554C67.7144 1.43018 71.6254 0.876247 75.5647 0.60023C79.5039 0.396052 83.4602 0.371478 87.3994 0.721226C95.2798 1.37913 103.047 3.33395 110.356 6.35312C124.946 12.4822 137.599 23.0616 146.106 36.2878C148.24 39.5886 150.096 43.054 151.731 46.612C153.349 50.1813 154.648 53.8792 155.715 57.6281C156.775 61.3846 157.454 65.2299 157.931 69.0772C158.37 72.9338 158.489 76.8113 158.35 80.6623L157.873 80.6661C156.999 65.3547 151.736 50.5859 142.998 38.4127C134.271 26.2377 122.168 16.6168 108.414 11.0738C104.991 9.64831 101.452 8.53102 97.869 7.60655L95.1648 6.97322L92.4343 6.46844C91.5254 6.28695 90.6089 6.16217 89.6906 6.0374C88.7722 5.92397 87.8595 5.74815 86.9337 5.68576C83.2471 5.2793 79.5303 5.22637 75.8192 5.33791C72.11 5.52129 68.4178 5.96366 64.7614 6.64425C50.1735 9.52353 36.3738 16.6395 25.4442 27.0563C20.0397 32.3082 15.2575 38.2955 11.62 44.971C9.74744 48.2794 8.26526 51.792 6.93206 55.3481L6.00617 58.0459C5.72897 58.9552 5.48948 59.8759 5.22925 60.789C4.95582 61.7003 4.74651 62.6266 4.54285 63.5549C4.34862 64.485 4.09217 65.4019 3.94697 66.3415L3.47931 69.1528C3.33976 70.0923 3.26245 71.0395 3.15119 71.981L2.99656 73.3951L2.91359 74.8168C2.86833 75.764 2.77971 76.7092 2.77782 77.6564C2.72879 81.4507 2.96639 85.2336 3.42462 88.9787C3.95828 92.7163 4.7088 96.4123 5.74971 100.021C6.81891 103.623 8.08612 107.152 9.60223 110.574C11.1259 113.99 12.8909 117.286 14.8049 120.49C16.7736 123.662 18.9441 126.701 21.2635 129.627C23.6376 132.51 26.1966 135.236 28.9252 137.788C31.6689 140.326 34.5805 142.681 37.6372 144.842C40.7166 146.973 43.9336 148.901 47.2657 150.629C50.611 152.332 54.0901 153.771 57.6409 155.036C61.2068 156.261 64.8689 157.216 68.5837 157.97C72.3061 158.698 76.0889 159.136 79.9056 159.418V159.896V159.9Z" fill="url('#paint6_radial_160_1295')"></path>
<path d="M146.628 105.102C146.094 104.665 145.563 104.134 145.15 103.51C145.414 105.068 145.021 106.688 144.722 107.613C141.608 111.583 138.182 115.288 134.478 118.708C134.02 118.003 133.603 117.201 133.343 116.337C132.994 119.13 131.048 121.599 130.703 122.017C128.093 124.187 125.367 126.227 122.531 128.123C121.97 127.331 121.441 126.391 121.131 125.365C120.869 127.465 119.702 129.384 118.993 130.382C117.341 131.39 115.657 132.352 113.941 133.267C111.452 134.594 108.929 135.844 106.391 137.05C105.706 136.171 105.007 135.052 104.631 133.806C104.362 135.953 103.149 137.91 102.446 138.889C98.0539 140.903 93.6432 142.833 89.3061 144.843C88.6178 143.962 87.9144 142.837 87.5372 141.587C87.2619 143.784 86.0004 145.78 85.3046 146.735C82.5043 148.091 79.7511 149.507 77.064 151.019C81.7141 152.104 86.2455 153.365 90.5355 154.921C105.148 146.263 121.578 139.614 132.24 126.737C122.472 139.736 107.103 147.034 93.2793 155.97C93.6753 156.131 94.0713 156.294 94.4616 156.458C97.1921 157.617 99.7077 158.882 102.029 160.258C109.647 154.734 117.72 149.628 124.38 143.589C140.599 128.887 152.197 109.666 156.49 88.0513C153.794 94.1312 150.479 99.8311 146.624 105.1L146.628 105.102Z" fill="url('#paint7_radial_160_1295')"></path>
<defs>
<radialGradient id="paint0_radial_160_1295" cx="0" cy="0" r="1" gradientUnits="userSpaceOnUse" gradientTransform="translate(76.1796 40.4189) scale(44.3615 44.4747)">
<stop stop-color="#2E660D"></stop>
<stop offset="1" stop-color="#9DDC63"></stop>
</radialGradient>
<radialGradient id="paint1_radial_160_1295" cx="0" cy="0" r="1" gradientUnits="userSpaceOnUse" gradientTransform="translate(76.1794 40.4163) scale(44.3617 44.4748)">
<stop stop-color="#2E660D"></stop>
<stop offset="1" stop-color="#9DDC63"></stop>
</radialGradient>
<radialGradient id="paint2_radial_160_1295" cx="0" cy="0" r="1" gradientUnits="userSpaceOnUse" gradientTransform="translate(76.1793 40.4177) scale(44.3615 44.4749)">
<stop stop-color="#2E660D"></stop>
<stop offset="1" stop-color="#9DDC63"></stop>
</radialGradient>
<radialGradient id="paint3_radial_160_1295" cx="0" cy="0" r="1" gradientUnits="userSpaceOnUse" gradientTransform="translate(76.1794 -215.907) scale(44.3615 44.4748)">
<stop stop-color="#2E660D"></stop>
<stop offset="1" stop-color="#9DDC63"></stop>
</radialGradient>
<radialGradient id="paint4_radial_160_1295" cx="0" cy="0" r="1" gradientUnits="userSpaceOnUse" gradientTransform="translate(76.1795 40.4154) scale(44.3615 44.4746)">
<stop stop-color="#2E660D"></stop>
<stop offset="1" stop-color="#9DDC63"></stop>
</radialGradient>
<radialGradient id="paint5_radial_160_1295" cx="0" cy="0" r="1" gradientUnits="userSpaceOnUse" gradientTransform="translate(76.1798 40.419) scale(44.3616 44.4748)">
<stop stop-color="#2E660D"></stop>
<stop offset="1" stop-color="#9DDC63"></stop>
</radialGradient>
<radialGradient id="paint6_radial_160_1295" cx="0" cy="0" r="1" gradientUnits="userSpaceOnUse" gradientTransform="translate(37.7711 167.865) scale(167.902 168.331)">
<stop stop-color="#2E660D"></stop>
<stop offset="1" stop-color="#9DDC63"></stop>
</radialGradient>
<radialGradient id="paint7_radial_160_1295" cx="0" cy="0" r="1" gradientUnits="userSpaceOnUse" gradientTransform="translate(37.7712 167.864) scale(167.903 168.331)">
<stop stop-color="#2E660D"></stop>
<stop offset="1" stop-color="#9DDC63"></stop>
</radialGradient>
</defs>
</svg>
